<?xml version="1.0" encoding="utf-8"?>
<!-- Generator: Adobe Illustrator 26.4.1, SVG Export Plug-In . SVG Version: 6.00 Build 0)  -->
<!DOCTYPE svg PUBLIC "-//W3C//DTD SVG 1.1//EN" "http://www.w3.org/Graphics/SVG/1.1/DTD/svg11.dtd" [
	<!ENTITY ns_extend "http://ns.adobe.com/Extensibility/1.0/">
	<!ENTITY ns_ai "http://ns.adobe.com/AdobeIllustrator/10.0/">
	<!ENTITY ns_graphs "http://ns.adobe.com/Graphs/1.0/">
	<!ENTITY ns_vars "http://ns.adobe.com/Variables/1.0/">
	<!ENTITY ns_imrep "http://ns.adobe.com/ImageReplacement/1.0/">
	<!ENTITY ns_sfw "http://ns.adobe.com/SaveForWeb/1.0/">
	<!ENTITY ns_custom "http://ns.adobe.com/GenericCustomNamespace/1.0/">
	<!ENTITY ns_adobe_xpath "http://ns.adobe.com/XPath/1.0/">
]>
<svg version="1.1"
	 id="Layer_2_00000016058784028012465780000003483073258253190538_" xmlns:x="&ns_extend;" xmlns:i="&ns_ai;" xmlns:graph="&ns_graphs;"
	 xmlns="http://www.w3.org/2000/svg" xmlns:xlink="http://www.w3.org/1999/xlink" x="0px" y="0px" viewBox="0 0 341.9 614.6"
	 style="enable-background:new 0 0 341.9 614.6;" xml:space="preserve">
<style type="text/css">
	
		.st0{clip-path:url(#SVGID_00000116958253327762022410000007470300850929350285_);fill:none;stroke:#FFFFFF;stroke-width:1.8294;stroke-linecap:round;stroke-linejoin:round;stroke-miterlimit:10;stroke-dasharray:2.6134,3.9202;}
	.st1{fill:#FFFFFF;}
	
		.st2{clip-path:url(#SVGID_00000078013426925787705150000000802799711436527791_);fill:none;stroke:#FFFFFF;stroke-width:1.8294;stroke-linecap:round;stroke-linejoin:round;stroke-miterlimit:10;stroke-dasharray:2.6134,3.9202;}
	
		.st3{fill-rule:evenodd;clip-rule:evenodd;fill:none;stroke:#FFFFFF;stroke-width:2.0908;stroke-linecap:round;stroke-linejoin:round;stroke-miterlimit:10;}
	.st4{fill:#6799CC;}
	.st5{clip-path:url(#SVGID_00000126302502197300937290000004680174514978448518_);fill:#146734;}
	.st6{fill-rule:evenodd;clip-rule:evenodd;fill:#FFFFFF;}
	.st7{fill-rule:evenodd;clip-rule:evenodd;}
	
		.st8{fill-rule:evenodd;clip-rule:evenodd;fill:none;stroke:#FFFFFF;stroke-width:4.6063;stroke-linecap:round;stroke-miterlimit:3.8637;}
	.st9{fill:#F5F5F5;}
	.st10{clip-path:url(#SVGID_00000050645501184146298090000014242835802590226594_);}
	.st11{fill:#FF9A9A;}
	.st12{fill:#FFCE08;}
	.st13{fill:#09090B;}
	.st14{fill:#146734;}
	.st15{fill:#CC2027;}
	.st16{fill:#CD9ACD;}
	.st17{fill:#003366;}
	.st18{fill:#9A669A;}
	.st19{fill:#BB4F9F;}
	.st20{fill:#FF6600;}
	.st21{fill:#669A33;}
	.st22{fill:none;stroke:#000000;stroke-width:8.9663;stroke-linecap:round;stroke-linejoin:round;stroke-miterlimit:3.8637;}
	.st23{fill:#CD0000;}
	.st24{clip-path:url(#SVGID_00000049192170818338696630000006602934219646318224_);fill:#CD0000;}
	
		.st25{fill-rule:evenodd;clip-rule:evenodd;fill:none;stroke:#000000;stroke-width:8.9663;stroke-linecap:round;stroke-linejoin:round;stroke-miterlimit:3.8637;}
	.st26{fill:#C0C0C0;}
	.st27{fill-rule:evenodd;clip-rule:evenodd;fill:#E6E6E6;}
</style>
<metadata>
	<sfw  xmlns="&ns_sfw;">
		<slices></slices>
		<sliceSourceBounds  bottomLeftOrigin="true" height="651.5" width="449.5" x="-116.9" y="-78.2"></sliceSourceBounds>
	</sfw>
</metadata>
<g>
	<g>
		<g>
			<path d="M186,571.3l0.9-137.3h-9.4l-1.2,177.5h9.5l0-7.9l9.4,7.9h40.1c0.7-2.4-0.4-5.4-3.8-5.5
				C226.3,605.7,197.1,601.5,186,571.3z"/>
			<path d="M146.7,611.4l9.4-7.9l0,7.9h9.5L164.4,434H155l0.9,137.3c-11,30.2-40.3,34.4-45.5,34.6c-3.4,0.1-4.5,3.1-3.8,5.5H146.7z"
				/>
		</g>
		<g>
			<defs>
				<path id="SVGID_1_" d="M115.3,600.7c8.3-1.3,18.5-4.3,26-15.6c0.5-0.8,1.8-3.3,6.2-3.3c4.4,0,19.2,0,19.2,0c0,1,0,6.7,0,11.2
					c2.2,6.5,1,15-0.2,18.4l-15.7-1l-44.2,1C105.7,606,106.5,602.1,115.3,600.7z"/>
			</defs>
			<use xlink:href="#SVGID_1_"  style="overflow:visible;fill:#CD0000;"/>
			<clipPath id="SVGID_00000174572519207799289180000013573294845616717700_">
				<use xlink:href="#SVGID_1_"  style="overflow:visible;"/>
			</clipPath>
			
				<path style="clip-path:url(#SVGID_00000174572519207799289180000013573294845616717700_);fill:none;stroke:#FFFFFF;stroke-width:1.8294;stroke-linecap:round;stroke-linejoin:round;stroke-miterlimit:10;stroke-dasharray:2.6134,3.9202;" d="
				M166.2,593c-7.4,0.9-14,4.3-16.8,12.7"/>
			
				<path style="clip-path:url(#SVGID_00000174572519207799289180000013573294845616717700_);fill:none;stroke:#FFFFFF;stroke-width:1.8294;stroke-linecap:round;stroke-linejoin:round;stroke-miterlimit:10;stroke-dasharray:2.6134,3.9202;" d="
				M125.3,598.6l1.7,3c5.1-3.2,13-2,14.9,6.1"/>
		</g>
		<polygon class="st1" points="149.4,605.8 135.9,609.2 104.1,609.2 104.1,614.6 136,614.6 149.4,611.2 149.4,611.2 149.4,611.2 
			149.4,611.2 149.4,614.6 152.8,614.6 152.8,613.2 155,613.2 155,614.6 158.2,614.6 158.2,613.2 160.3,613.2 160.3,614.6 
			163.5,614.6 163.5,613.2 165.7,613.2 165.7,614.6 169.1,614.6 169.1,605.8 		"/>
		<g>
			<defs>
				<path id="SVGID_00000075865235871419504570000004769538275964254134_" d="M226.6,600.7c-8.3-1.3-18.5-4.3-26-15.6
					c-0.5-0.8-1.8-3.3-6.2-3.3c-4.4,0-19.2,0-19.2,0c0,1,0,6.7,0,11.2c-2.2,6.5-1,15,0.2,18.4l15.7-1l44.2,1
					C236.2,606,235.4,602.1,226.6,600.7z"/>
			</defs>
			<use xlink:href="#SVGID_00000075865235871419504570000004769538275964254134_"  style="overflow:visible;fill:#CD0000;"/>
			<clipPath id="SVGID_00000017499851700520864750000010752759058237024137_">
				<use xlink:href="#SVGID_00000075865235871419504570000004769538275964254134_"  style="overflow:visible;"/>
			</clipPath>
			
				<path style="clip-path:url(#SVGID_00000017499851700520864750000010752759058237024137_);fill:none;stroke:#FFFFFF;stroke-width:1.8294;stroke-linecap:round;stroke-linejoin:round;stroke-miterlimit:10;stroke-dasharray:2.6134,3.9202;" d="
				M175.7,593c7.4,0.9,14,4.3,16.8,12.7"/>
			
				<path style="clip-path:url(#SVGID_00000017499851700520864750000010752759058237024137_);fill:none;stroke:#FFFFFF;stroke-width:1.8294;stroke-linecap:round;stroke-linejoin:round;stroke-miterlimit:10;stroke-dasharray:2.6134,3.9202;" d="
				M216.6,598.6l-1.7,3c-5.1-3.2-13-2-14.9,6.1"/>
		</g>
		<polygon class="st1" points="192.5,605.8 206,609.2 237.8,609.2 237.8,614.6 205.9,614.6 192.5,611.2 192.5,611.2 192.5,611.2 
			192.5,611.2 192.5,614.6 189.1,614.6 189.1,613.2 186.9,613.2 186.9,614.6 183.7,614.6 183.7,613.2 181.6,613.2 181.6,614.6 
			178.4,614.6 178.4,613.2 176.2,613.2 176.2,614.6 172.8,614.6 172.8,605.8 		"/>
		<g>
			<path class="st3" d="M139.8,587.2c0.8,2.4,2,6.6,1.4,9.9"/>
			<path class="st3" d="M139.9,587.2C152.5,598.9,155,578.8,139.9,587.2"/>
			<path class="st3" d="M139.9,587.1C122.7,587.9,133.8,570.9,139.9,587.1"/>
		</g>
		<g>
			<path class="st3" d="M202,587.2c-0.8,2.4-2,6.6-1.4,9.9"/>
			<path class="st3" d="M201.9,587.2C189.4,598.9,186.8,578.8,201.9,587.2"/>
			<path class="st3" d="M202,587.1C219.2,587.9,208,570.9,202,587.1"/>
		</g>
	</g>
	<g>
		<path class="st4" d="M171,491.8c1.6,0,2.8,1.3,2.8,2.8v80.2h16.6c0,0,11.5-73,12.1-76.7c0.6-3.6,0.9-7.4,0.2-11.8
			c-0.5-3-1.9-12-1.9-12H171h-29.9c0,0-1.4,9-1.9,12c-0.7,4.4-0.4,8.2,0.2,11.8c0.6,3.6,12.1,76.7,12.1,76.7h16.6v-80.2
			C168.2,493,169.4,491.8,171,491.8z"/>
	</g>
	<path d="M224.4,475.8c0,0,0.1-0.1,0.1-0.1c0.3-0.2,0.6-0.4,0.9-0.6c1.5-1.1,19-13.4,44.7-11.1c3,0.3,4.8-1.3,5.5-2.9
		c0.9-2.1,0.2-4.4-1.9-6.5c-8.2-7.8-24.8-23-37.4-34.5c2.5-1.8,4.6-4.1,6.1-6.9c12.7,11.5,29.5,26.9,37.7,34.8
		c5,4.8,6.5,11.3,3.9,16.9c-2.5,5.6-8.3,8.8-14.7,8.2c-22.9-2.1-38.4,9.2-38.5,9.3c-0.1,0-0.1,0.1-0.2,0.1c0,0,0,0-0.1,0.1
		c-0.3,0.2-0.5,0.3-0.8,0.5c-5.8,4.7-8,9.8-6.3,14.3c1.6,4,6.1,6.8,10.2,6.5c2.8-0.2,6.4-2,8-9c0.6-2.5,3-4,5.5-3.5
		c2.5,0.6,4,3,3.5,5.5c-2.2,9.5-8.3,15.5-16.3,16.1c-0.5,0-0.9,0.1-1.4,0.1c-4.7,0-9.3-1.8-12.8-4.9c2.5,7.1,8.4,11.8,14.5,11.4
		c2.5-0.2,4.7,1.8,4.9,4.3c0.2,2.5-1.8,4.7-4.3,4.9c-0.4,0-0.9,0-1.3,0c-9.9,0-19.1-7.3-22.6-18.2C208,500.4,209.7,486,224.4,475.8z
		"/>
	<g>
		<defs>
			<path id="SVGID_00000003080695686611286080000001246477944885469617_" d="M171,415.6c-24.5,0-47.4-6.3-67.4-17.4L76,423.1
				l28.9,32l27.1-24.4v74.1h78.1v-74.1l27.1,24.4l28.9-32l-27.6-24.9C218.4,409.2,195.5,415.6,171,415.6z"/>
		</defs>
		<use xlink:href="#SVGID_00000003080695686611286080000001246477944885469617_"  style="overflow:visible;fill:#003366;"/>
		<clipPath id="SVGID_00000098218311901732593680000012342599064623849620_">
			<use xlink:href="#SVGID_00000003080695686611286080000001246477944885469617_"  style="overflow:visible;"/>
		</clipPath>
		<path style="clip-path:url(#SVGID_00000098218311901732593680000012342599064623849620_);fill:#146734;" d="M210.1,488.9h-15.6
			v-15.8h15.6V488.9z M210.1,425.7h-15.6V410h15.6V425.7z M210.1,457.3h-15.6v-15.8h15.6V457.3z M178.8,504.7h15.6v-15.8h-15.6
			V504.7z M163.2,488.9h15.6v-15.8h-15.6V488.9z M147.5,504.7h15.6v-15.8h-15.6V504.7z M178.8,473.1h15.6v-15.8h-15.6V473.1z
			 M147.5,473.1h15.6v-15.8h-15.6V473.1z M131.9,488.9h15.6v-15.8h-15.6V488.9z M178.8,441.5h15.6v-15.8h-15.6V441.5z M163.2,425.7
			h15.6V410h-15.6V425.7z M178.8,410h15.6v-15.8h-15.6V410z M147.5,410h15.6v-15.8h-15.6V410z M131.9,425.7h15.6V410h-15.6V425.7z
			 M163.2,457.3h15.6v-15.8h-15.6V457.3z M147.5,441.5h15.6v-15.8h-15.6V441.5z M131.9,457.3h15.6v-15.8h-15.6V457.3z M288.3,473.1
			h-15.6v-15.8h15.6V473.1z M288.3,410h-15.6v-15.8h15.6V410z M288.3,441.5h-15.6v-15.8h15.6V441.5z M257,488.9h15.6v-15.8H257
			V488.9z M241.4,473.1H257v-15.8h-15.6V473.1z M225.7,488.9h15.6v-15.8h-15.6V488.9z M257,457.3h15.6v-15.8H257V457.3z
			 M225.7,457.3h15.6v-15.8h-15.6V457.3z M210.1,473.1h15.6v-15.8h-15.6V473.1z M257,425.8h15.6V410H257V425.8z M241.4,410H257
			v-15.8h-15.6V410z M257,394.2h15.6v-15.8H257V394.2z M225.7,394.2h15.6v-15.8h-15.6V394.2z M210.1,410h15.6v-15.8h-15.6V410z
			 M241.4,441.5H257v-15.8h-15.6V441.5z M225.7,425.8h15.6V410h-15.6V425.8z M210.1,441.5h15.6v-15.8h-15.6V441.5z M131.9,473.1
			h-15.6v-15.8h15.6V473.1z M131.9,410h-15.6v-15.8h15.6V410z M131.9,441.5h-15.6v-15.8h15.6V441.5z M100.6,488.9h15.6v-15.8h-15.6
			V488.9z M85,473.1h15.6v-15.8H85V473.1z M69.4,488.9H85v-15.8H69.4V488.9z M100.6,457.3h15.6v-15.8h-15.6V457.3z M69.4,457.3H85
			v-15.8H69.4V457.3z M53.7,473.1h15.6v-15.8H53.7V473.1z M100.6,425.8h15.6V410h-15.6V425.8z M85,410h15.6v-15.8H85V410z
			 M100.6,394.2h15.6v-15.8h-15.6V394.2z M69.4,394.2H85v-15.8H69.4V394.2z M53.7,410h15.6v-15.8H53.7V410z M85,441.5h15.6v-15.8H85
			V441.5z M69.4,425.8H85V410H69.4V425.8z M53.7,441.5h15.6v-15.8H53.7V441.5z"/>
	</g>
	<path d="M115.1,89.9c2.1-1.7,4.2-3.3,6.4-4.8C135.6,75.6,152.7,70,171,70c18.3,0,35.4,5.6,49.5,15.1c2.8,1.9,5.6,4,8.2,6.2
		c43.6,36.6,82.6,120.4,80.5,187.1c0,75.8-61.8,137.1-138.1,137.1c-76.2,0-137.9-61.1-138.1-136.6C30.6,210.9,70.8,125.6,115.1,89.9
		z"/>
	<path class="st6" d="M78.4,245.1c0-51.2,41.5-92.6,92.6-92.6c51.2,0,92.6,41.5,92.6,92.6c0,51.2-41.5,92.6-92.6,92.6
		C119.8,337.8,78.4,296.3,78.4,245.1z"/>
	<path class="st7" d="M124.7,245.1c0-25.6,20.7-46.3,46.3-46.3c25.6,0,46.3,20.7,46.3,46.3c0,25.6-20.7,46.3-46.3,46.3
		C145.4,291.5,124.7,270.7,124.7,245.1z"/>
	<g>
		<path class="st8" d="M186,381.6c-3,5.2-8.6,8.8-15,8.8c-6.4,0-12.1-3.5-15-8.8"/>
	</g>
	<path class="st9" d="M36,238.5c-16.3-3.6-26.7-7.9-26.7-12.5c0-0.8,0.3-1.6,0.9-2.4c0.1-0.2,0.3-0.3,0.4-0.5c0,0,0.1-0.1,0.1-0.1
		c0.1-0.1,0.3-0.3,0.4-0.4c0,0,0.1,0,0.1-0.1c4.1-3.9,15-7.5,30.9-10.5c0,0,0,0,0,0C39.5,220.8,37.5,229.7,36,238.5
		C36,238.5,36,238.5,36,238.5z M331.7,223.6c-3.1-4.3-14.5-8.3-31.8-11.5c0,0,0,0,0,0c2.5,8.8,4.6,17.7,6.1,26.5c0,0,0,0,0,0
		c16.3-3.6,26.5-7.9,26.5-12.6C332.6,225.2,332.3,224.4,331.7,223.6z"/>
	<g>
		<defs>
			<path id="SVGID_00000145020186216834963070000004258932787743592582_" d="M292.7,165.2C292.7,165.2,292.7,165.2,292.7,165.2
				c-3.4-13-16.1-62.1-22-80c-5.6-17-12.7-30-37.4-31.6c-24.5-1.6-36.4-2.2-62.3-2.2s-36.1,0.5-62.3,2.2
				c-24.8,1.6-31.8,14.6-37.4,31.6c-5.9,17.9-18.7,67-22,80c-15.1,13.9-34.9,52.2-39.1,58.4c8.4-11.7,77.2-20.8,160.8-20.8
				c83.7,0,152.5,9.1,160.8,20.8C327.8,217.9,307.9,179.1,292.7,165.2z"/>
		</defs>
		<use xlink:href="#SVGID_00000145020186216834963070000004258932787743592582_"  style="overflow:visible;fill:#FFFFFF;"/>
		<clipPath id="SVGID_00000021820543252718848890000010644047713421191358_">
			<use xlink:href="#SVGID_00000145020186216834963070000004258932787743592582_"  style="overflow:visible;"/>
		</clipPath>
		<g style="clip-path:url(#SVGID_00000021820543252718848890000010644047713421191358_);">
			<circle class="st11" cx="168.4" cy="53" r="11.7"/>
			<circle class="st12" cx="94.1" cy="111.6" r="11.7"/>
			<circle class="st13" cx="148.1" cy="176.6" r="11.7"/>
			<polygon class="st4" points="144.1,59.7 150,76.9 115.1,100 100.3,60.8 115.3,50.4 			"/>
			<circle class="st14" cx="123.4" cy="197.3" r="11.7"/>
			<g>
				<path class="st15" d="M132.1,156.3c-1.4,0.5-3,0.7-4.5,0.3c-4.2-0.9-6.7-5.1-5.8-9.2c3.9-17.1,11.6-33.6,22.3-47.6
					c2.9-3.7,6.2-5.6,10-5.4c2.6,0.1,4.9,1.5,6.3,3.6s1.5,4.9,0.5,7.2c-1.5,3.4-2.8,6.8-3.9,10.4c2.4-2.9,5.2-5.6,8.3-8
					c6.1-4.7,11.7-3.6,15-1c3.2,2.5,3.9,6.1,4.2,7.6l2.7,13.4c0.8,4.2-1.9,8.2-6.1,9.1c-4.2,0.8-8.2-1.9-9.1-6.1l-1.4-7.1
					c-4.8,5-8.2,11.3-10.8,16.5c-1.1,2.2-4.5,9-11.9,9.4c-3.1,0.1-5.9-1.6-7.3-4.3c-0.5-1-0.9-2.1-1.2-3.2c-0.9,2.9-1.8,5.9-2.4,8.9
					C136.2,153.4,134.4,155.4,132.1,156.3z"/>
			</g>
			<g>
				<path class="st16" d="M34.2,191.4c0.6-1.4,1.5-2.6,2.9-3.5c3.6-2.3,8.3-1.4,10.7,2.2c9.7,14.7,16.3,31.6,19,48.9
					c0.7,4.7-0.3,8.3-2.9,11c-1.8,1.8-4.4,2.5-7,2c-2.5-0.5-4.6-2.3-5.6-4.6c-1.4-3.4-3-6.8-4.8-10c0.4,3.7,0.5,7.6,0.1,11.5
					c-0.8,7.6-5.5,11-9.6,11.5c-4,0.6-7.1-1.4-8.4-2.2L17,250.9c-3.6-2.3-4.7-7-2.4-10.6c2.3-3.6,7-4.7,10.6-2.4l6.1,3.9
					c-0.3-6.9-2.5-13.7-4.5-19.2c-0.9-2.4-3.4-9.5,1.4-15.1c2-2.3,5.2-3.2,8.2-2.3c1.1,0.4,2.1,0.8,3.1,1.3
					c-1.5-2.7-3.1-5.4-4.8-7.9C33.4,196.4,33.2,193.7,34.2,191.4z"/>
			</g>
			<g>
				<g>
					<path class="st17" d="M77.5,191.9c-4.3-0.3-6.1-8.5-5.9-16.7c-5.4,4.9-10.9,8-14.2,7.8c-1.3-0.1-2.1-0.6-2.5-1.1
						c-0.5-0.5-1-1.3-1-2.7c0.1-3.2,3.5-8.5,8.6-13.4c-0.5,0-1,0-1.5-0.1c-7-0.5-15.1-2.5-15-6.9c0.1-4.4,8.8-6.2,16.9-6.1
						c-4.8-5.2-7.8-10.5-7.7-13.8c0-1.4,0.6-2.3,1.1-2.7c0.5-0.5,1.5-1,3-0.9c3.3,0.2,8.4,3.5,13.2,8.5c0.4-8.1,2.7-16.5,7.1-16.4
						l0,0c4.5,0.3,6.2,8.5,6,16.7c5.4-4.9,10.9-8,14.2-7.8c1.3,0.1,2.1,0.6,2.5,1.1c0.5,0.5,1,1.3,0.9,2.7
						c-0.1,3.2-3.5,8.5-8.6,13.4c0.5,0,1,0,1.5,0.1c7,0.5,15.1,2.5,15,6.9c-0.1,4.4-8.8,6.2-16.9,6.1c4.8,5.2,7.8,10.5,7.7,13.8
						c0,1.4-0.6,2.3-1.1,2.7c-0.5,0.5-1.5,1-3,0.9c-3.3-0.2-8.4-3.5-13.2-8.5c-0.4,8.1-2.7,16.5-7.1,16.4L77.5,191.9z"/>
				</g>
			</g>
			<circle class="st18" cx="74.2" cy="87.9" r="11.7"/>
			<circle class="st19" cx="286.6" cy="158.4" r="11.7"/>
			<g>
				<path class="st20" d="M192.3,144.3c0,0,0.1,0,0.1,0c3.8-0.2,7.2,2.3,8.2,6c1.9,7.2,3.8,14.6,6,21.8c0.4-4.6,1.3-9.2,3-13.7
					c0.9-2.5,3-4.4,5.6-5c2.6-0.6,5.3,0,7.3,1.8c3.5,3.2,6.4,7.2,8.2,11.6c1.7,4.1-0.2,8.8-4.3,10.5c-1.3,0.5-2.7,0.7-4,0.6
					c-0.1,2.9-0.1,5.9-0.1,9c0,4.2,0.1,8.5-0.2,12.8c-0.1,1.9-0.5,7.1-4.7,10.6c-2.6,2.2-6.3,2.5-9.3,0.7c-1.5-0.9-2.8-2-3.8-3.2
					c-0.2,2.8-1.8,5.3-4.5,6.6c-4,1.9-8.8,0.3-10.7-3.7c-6.8-14.1-8.2-33.6-4.1-59.6C185.5,147.3,188.6,144.5,192.3,144.3z"/>
			</g>
			<g>
				<path class="st12" d="M210.9,108.7c39.9-41.6-3.6-62.4-10.1-38.4C183.5,52.6,155.8,92,210.9,108.7z"/>
			</g>
			<circle class="st21" cx="257.1" cy="70" r="11.7"/>
			<circle class="st4" cx="256.1" cy="179.7" r="11.7"/>
			<polygon class="st13" points="263.7,95.8 263.6,115.5 279.7,126.7 260.9,132.7 255.2,151.4 243.8,135.5 224.1,135.8 235.8,120 
				229.4,101.4 248,107.7 			"/>
			<g>
				<path class="st11" d="M305.5,193.3c0.6,3.2-0.8,6.6-3.7,8.5c-2.9,1.9-5.9,3.8-8.9,6c2,0.8,3.7,2.3,4.6,4.3
					c1.9,4.2,0.1,9.2-4.1,11.2c-11,5.1-17.2,9.5-23.8,14.3c-2.2,1.6-4.4,3.2-6.9,4.9c-3.2,2.2-7.5,1.9-10.4-0.7
					c-2.6-2.3-3.4-5.9-2.3-9.1c-2.9,1.8-6.7,1.7-9.6-0.5c-3.7-2.8-4.4-8.1-1.5-11.8c10.7-13.9,42.5-29.5,55.8-33.6
					c4-1.2,8.3,0.7,10.1,4.5C305.1,191.9,305.3,192.6,305.5,193.3z"/>
			</g>
		</g>
	</g>
	<g>
		<path class="st22" d="M82.7,425.3"/>
		<path class="st22" d="M106.7,427.9"/>
		<path class="st23" d="M121.8,412.1c-5.4-11.2-12.9-17.3-21.2-17.3s-15.8,6.2-21.2,17.3c-4.8,10.1-7.5,23.4-7.5,37.6h9.2
			c0-6.9,0.7-13.2,1.8-18.9l-6.9-7.7l18.2-16.3l0,0c2.1-1.9,4.3-2.9,6.4-2.9c9.2,0,19.5,18.8,19.5,45.7h9.2
			C129.3,435.5,126.6,422.2,121.8,412.1z"/>
		<g>
			<defs>
				<path id="SVGID_00000088852120381015938890000018018811994928633013_" d="M151.2,551.9H50c-2.9,0-5.3-2.4-5.3-5.3V445.5
					c0-2.9,2.4-5.3,5.3-5.3h101.2c2.9,0,5.3,2.4,5.3,5.3v101.2C156.5,549.6,154.1,551.9,151.2,551.9z"/>
			</defs>
			<use xlink:href="#SVGID_00000088852120381015938890000018018811994928633013_"  style="overflow:visible;fill:#FFFFFF;"/>
			<clipPath id="SVGID_00000013185677026674242700000003171614978445177765_">
				<use xlink:href="#SVGID_00000088852120381015938890000018018811994928633013_"  style="overflow:visible;"/>
			</clipPath>
			<path style="clip-path:url(#SVGID_00000013185677026674242700000003171614978445177765_);fill:#CD0000;" d="M35.2,341.5l10.9-11
				l194.5,197.1l-10.9,11L35.2,341.5z M208,560.7l10.9-11L24.4,352.6l-10.9,11L208,560.7z M186.3,582.7l10.9-11L2.6,374.6l-10.9,11
				L186.3,582.7z M164.6,604.7l10.9-11L-19.1,396.6l-10.9,11L164.6,604.7z M142.8,626.8l10.9-11L-40.8,418.6l-10.9,11L142.8,626.8z
				 M121.1,648.8l10.9-11L-62.6,440.6l-10.9,11L121.1,648.8z M99.4,670.8l10.9-11L-84.3,462.7l-10.9,11L99.4,670.8z M77.6,692.8
				l10.9-11L-106,484.7l-10.9,11L77.6,692.8z"/>
		</g>
		<path class="st25" d="M135.7,438c0,0-4.5,6.1-19,10.6"/>
		<path class="st25" d="M133.2,430.1c0,0-6.7,6.7-18.1,10.2"/>
		<path class="st25" d="M130.4,421.9c0,0-6,6.5-16.3,10.2"/>
		<rect x="86.8" y="449.7" class="st26" width="27.6" height="18.1"/>
		<path class="st25" d="M112,425.3c0.2,8.8,2.1,15.2,4.8,23.3"/>
		<g>
			<path class="st27" d="M90,457.7h-1.7v5.2h1.8c2,0,2.7-1.2,2.7-2.6c0-0.6-0.1-1.1-0.5-1.6C91.6,457.7,90.5,457.7,90,457.7z
				 M90.1,461.7h-0.6v-2.9h0.6c0.6,0,0.9,0.2,1,0.5c0.2,0.3,0.3,0.7,0.3,1C91.4,461,91.1,461.7,90.1,461.7z"/>
			<path class="st27" d="M96,459.2c-0.3-0.2-0.7-0.3-1.1-0.3c-1.1,0-2.1,0.9-2.1,2.1c0,1.1,0.9,2.1,2.1,2.1c0.4,0,0.8-0.1,1.1-0.3
				v0.2h1.2V459H96V459.2z M94.9,461.9c-0.5,0-1-0.4-1-1c0-0.5,0.4-1,1-1c0.5,0,1,0.4,1,1C95.9,461.5,95.5,461.9,94.9,461.9z"/>
			<path class="st27" d="M98.7,459.4L98.7,459.4l0-0.4h-1.1v3.9h1.2v-2.1c0-0.6,0.4-0.7,0.9-0.7v-1.2
				C99,458.8,98.8,459.2,98.7,459.4z"/>
			<path class="st27" d="M101.8,461.9c-0.6,0-0.9-0.4-0.9-1c0-0.6,0.4-1,0.9-1c0.5,0,0.7,0.3,0.8,0.5h1.2c-0.2-1-1-1.6-2.1-1.6
				c-1.2,0-2,0.9-2,2.1c0,1.2,0.9,2.1,2.1,2.1c1,0,1.8-0.7,2-1.6h-1.2C102.5,461.6,102.3,461.9,101.8,461.9z"/>
			<path class="st27" d="M106.1,458.8c-1.2,0-2,1-2,2.1c0,1.2,0.9,2.1,2.1,2.1c0.4,0,0.8-0.1,1.1-0.3c0.3-0.2,0.6-0.6,0.8-1h-1.2
				c-0.2,0.2-0.3,0.4-0.7,0.4c-0.5,0-0.8-0.3-0.9-0.7h2.9c0-0.1,0-0.2,0-0.3C108.1,459.8,107.3,458.8,106.1,458.8z M105.2,460.5
				c0-0.2,0.3-0.7,0.9-0.7s0.8,0.4,0.9,0.7H105.2z"/>
			<rect x="108.4" y="457.7" class="st27" width="1.2" height="5.2"/>
			<path class="st27" d="M111.6,460.4c-0.3-0.1-0.6-0.2-0.6-0.4c0-0.1,0.1-0.3,0.3-0.3c0.3,0,0.4,0.2,0.4,0.3h1.1
				c-0.1-1-1-1.2-1.5-1.2c-0.8,0-1.5,0.5-1.5,1.3c0,0.5,0.4,0.9,0.9,1c0.7,0.3,1,0.3,1,0.6c0,0.2-0.2,0.3-0.4,0.3c0,0-0.4,0-0.4-0.4
				h-1.2c0.1,1,1,1.3,1.6,1.3c0.9,0,1.6-0.5,1.6-1.3C113,460.8,112.3,460.6,111.6,460.4z"/>
			<path class="st27" d="M94.9,463.5c-0.3,0-0.5,0.1-0.6,0.4c0,0,0,0.1,0,0.1c0,0,0,0,0,0c0,0,0.1,0,0.1,0c0.1-0.2,0.3-0.3,0.5-0.3
				c0.2,0,0.4,0.1,0.5,0.3c0,0,0.1,0.1,0.1,0c0,0,0.1-0.1,0-0.1C95.4,463.7,95.2,463.5,94.9,463.5z"/>
			<path class="st27" d="M97.6,455.9c0-0.6-0.1-1.1-0.5-1.6c-0.7-1-1.7-1-2.3-1h-1.7v5.2H95C96.9,458.5,97.6,457.3,97.6,455.9z
				 M94.5,454.5h0.6c0.6,0,0.9,0.2,1,0.5c0.2,0.3,0.3,0.7,0.3,1c0,0.7-0.3,1.4-1.3,1.4h-0.6V454.5z"/>
			<path class="st27" d="M103.6,458.6c0.3,0,0.8,0,1-0.5h0v0.4h1.1v-3.9h-1.2v2.1c0,0.6-0.3,0.8-0.7,0.8c-0.6,0-0.6-0.5-0.6-0.8
				v-2.1h-1.2v2.3c0,0.5,0,0.8,0.3,1.2C102.8,458.6,103.3,458.6,103.6,458.6z"/>
			<path class="st27" d="M107.2,456.4c0-0.6,0.4-0.7,0.9-0.7v-1.2c-0.7,0-0.9,0.4-1,0.5h0v-0.4H106v3.9h1.2V456.4z"/>
			<path class="st27" d="M99.8,458.6c1.1,0,2-0.9,2-2.1s-0.8-2.1-2-2.1c-1.1,0-2.1,0.9-2.1,2.1S98.7,458.6,99.8,458.6z M99.8,455.6
				c0.5,0,1,0.4,1,1s-0.4,1-1,1c-0.5,0-1-0.4-1-1S99.3,455.6,99.8,455.6z"/>
		</g>
		<path d="M113.6,445.4c-14.9,14.6-32.5,18.9-36,15.5c-1.3-1.3-1.6-7.9,11.3-23.5l-6.1-6.7c-18.2,21.8-16.4,32-11.4,36.7
			c2.5,2.4,6.1,3.5,10.3,3.5c10.8,0,25.9-7.1,38.1-19.1c1.8-1.7,1.8-4.6,0.1-6.3C118.2,443.7,115.4,443.6,113.6,445.4z"/>
		<path d="M120.1,449.7c0-2-0.1-3.9-0.2-5.8c-2.1-6.6-3.5-12.4-3.5-20.3c-2.1-6.6-4.8-11.7-7.8-15.1c0,0.1-0.1,0.2-0.1,0.4
			c-2.6,19.4-0.3,28.5,3.9,41.1c0.6,1.9,2.4,3.1,4.3,3.1c0.5,0,0.9-0.1,1.4-0.2c1.5-0.5,2.6-1.7,2.9-3.2H120.1z"/>
	</g>
	<g>
		<circle class="st1" cx="171" cy="443.5" r="3.2"/>
		<circle class="st1" cx="171" cy="467.8" r="3.2"/>
	</g>
	<g>
		<circle class="st1" cx="171" cy="492" r="3.2"/>
	</g>
	<path d="M171,415.6c-6,0-11.9-0.4-17.8-1.2L171,424h0l17.8-9.6C182.9,415.1,177,415.6,171,415.6z"/>
	<g>
		<path class="st21" d="M171,424l-17.8-9.6c-3.9-0.5-7.7-1.1-11.5-1.9l10.1,21.9L171,424L171,424L171,424z"/>
		<path class="st21" d="M200.3,412.4c-3.8,0.8-7.6,1.4-11.5,1.9L171,424l0,0l0,0l19.2,10.4L200.3,412.4z"/>
	</g>
	<path class="st4" d="M54.2,337.8c1.3,0,2.3,1,2.3,2.3c0,1.3-1,2.3-2.3,2.3c-6.7,0-12.1,5.4-12.1,12.1c0,6.7,5.4,12.1,12.1,12.1
		c3,0,5.9-1.1,8.2-3.2c0,0,0.1-0.1,0.1-0.1c1,1.2,1.9,2.4,2.9,3.5c0,0,0,0,0,0c-3.1,2.8-7,4.3-11.2,4.3c-9.2,0-16.7-7.5-16.7-16.7
		C37.6,345.3,45,337.8,54.2,337.8z"/>
</g>
</svg>
