<?xml version="1.0" encoding="UTF-8"?>
<svg id="Layer_1" data-name="Layer 1" xmlns="http://www.w3.org/2000/svg" viewBox="0 0 333.74 243.93">
  <defs>
    <style>
      .cls-1, .cls-2 {
        fill: #fff;
      }

      .cls-2 {
        fill-rule: evenodd;
      }
    </style>
  </defs>
  <g>
    <path class="cls-2" d="M100.27,57.46c-.03-12.68-2.7-25.03-10.71-35.97C74.49-.07,51.33-.02,38.34,0L0,.08,.23,115.88l40.53-.08c43.98-.09,59.57-26.72,59.5-58.33ZM29.63,26l12.83-.03c13.15-.03,19.11,5.44,22.56,10.6,4.24,6.56,5.67,14.85,5.68,21.43,.03,16.43-6.2,31.78-28.26,31.82l-12.68,.03-.13-63.85Z"/>
    <path class="cls-2" d="M232.83,118.23c6.57-.01,17.21-.97,22.51-12.09h.32s.02,9.23,.02,9.23l24.56-.05-.17-86.85-25.97,.05,.1,47.73c.03,13.77-7.32,17.7-14.83,17.71-13.92,.03-13.95-11.39-13.96-17.34l-.1-48.04-25.98,.05,.1,51.95c.02,11.89,.97,18.15,7.88,26.74,7.69,9.69,20.2,10.91,25.53,10.9Z"/>
    <path class="cls-2" d="M313.27,67.52c-.03-13.14,8.42-15.67,20.47-16l-.05-26.13c-15.03,.03-19.54,8.02-21.73,12.25h-.31s-.02-9.23-.02-9.23l-24.41,.05,.17,86.85,25.97-.05-.1-47.73Z"/>
  </g>
  <path class="cls-2" d="M149.98,25.75c-25.61,.05-46.32,20.85-46.27,46.46,.05,25.61,20.85,46.32,46.46,46.27,25.6-.05,44.36-20.85,44.31-46.45-.05-25.6-18.89-46.32-44.49-46.27Zm-.84,68.46c-12.2,.02-22.11-9.85-22.14-22.05-.02-12.2,9.85-22.11,22.05-22.14,12.2-.02,22.11,9.85,22.14,22.05,.02,12.2-9.85,22.11-22.05,22.14Z"/>
  <g>
    <g>
      <path class="cls-1" d="M64.24,125.49l63.24-.13,.05,25.98-34.91,.07,.04,19.73,33.66-.07,.05,25.98-33.66,.07,.09,44.15-28.33,.06-.23-115.84Z"/>
      <path class="cls-1" d="M160.3,241.14l-25.99,.05-.17-83.01,25.99-.05,.17,83.01Z"/>
      <path class="cls-1" d="M203.18,154.17l11.4-.02,.04,19.72-11.4,.02,.14,67.16-25.99,.05-.14-67.16-11.71,.02-.04-19.72,11.71-.02-.06-28.96,25.99-.05,.06,28.96Z"/>
      <path class="cls-1" d="M259.35,178.48c-.16-1.88-.48-6.57-8.15-6.56-5.48,.01-7.35,3.46-7.34,5.81,0,4.69,6.43,7.34,13.32,9.36,14.72,4.04,30.38,8.39,30.42,27.18,.04,18.31-16.06,29.62-35.32,29.66-13.15,.03-33.04-5.88-35.44-28.73l25.83-.05c1.11,7.98,8.78,7.97,9.88,7.96,4.38,0,9.07-2.52,9.07-6.75-.01-6.73-6.43-7.5-23.04-13.89-11.28-3.57-20.69-10.92-20.71-22.65-.03-17.22,15.6-28.68,33.6-28.72,11.43-.02,31.16,4.48,33.4,27.33l-25.52,.05Z"/>
    </g>
    <path class="cls-1" d="M147.07,124.03c-7.89,.02-14.28,6.43-14.26,14.32,.02,7.89,6.43,14.28,14.32,14.26,7.89-.02,14.28-6.43,14.26-14.32-.02-7.89-6.43-14.28-14.32-14.26Zm-1.54,18.01c0,1.18-.96,2.14-2.14,2.14-1.18,0-2.14-.96-2.14-2.14,0-1.18,.96-2.14,2.14-2.14,1.18,0,2.14,.96,2.14,2.14Zm-.01-7.42c0,1.18-.96,2.14-2.14,2.14-1.18,0-2.14-.96-2.14-2.14,0-1.18,.96-2.14,2.14-2.14,1.18,0,2.14,.96,2.14,2.14Zm7.44,7.41c0,1.18-.96,2.14-2.14,2.14-1.18,0-2.14-.96-2.14-2.14,0-1.18,.96-2.14,2.14-2.14,1.18,0,2.14,.96,2.14,2.14Zm-.01-7.42c0,1.18-.96,2.14-2.14,2.14-1.18,0-2.14-.96-2.14-2.14,0-1.18,.96-2.14,2.14-2.14,1.18,0,2.14,.96,2.14,2.14Z"/>
  </g>
</svg>