<?xml version="1.0" encoding="utf-8"?>
<!-- Generator: Adobe Illustrator 26.5.0, SVG Export Plug-In . SVG Version: 6.00 Build 0)  -->
<svg version="1.1" id="Layer_1" xmlns="http://www.w3.org/2000/svg" xmlns:xlink="http://www.w3.org/1999/xlink" x="0px" y="0px"
	 viewBox="0 0 341.9 614.6" style="enable-background:new 0 0 341.9 614.6;" xml:space="preserve">
<style type="text/css">
	.st0{fill:#FFFFFF;}
	.st1{fill-rule:evenodd;clip-rule:evenodd;fill:#FFFFFF;}
	.st2{clip-path:url(#SVGID_00000047743265509728054560000004377246040087571841_);}
	.st3{fill-rule:evenodd;clip-rule:evenodd;}
	.st4{fill:#669A33;}
	.st5{fill:#CC2027;}
	.st6{fill:#6799CC;}
	.st7{clip-path:url(#SVGID_00000129195288801640140540000014497763001486724225_);}
	.st8{fill:#FFCE08;}
</style>
<g>
	<path d="M123.2,90c2.1-1.7,4.2-3.3,6.4-4.8c14.1-9.5,31.2-15.1,49.5-15.1s35.4,5.6,49.5,15.1c2.9,1.9,5.6,4,8.2,6.2
		c43.6,36.6,82.6,120.4,80.5,187c0,75.8-61.8,137.1-138.1,137.1S41.2,354.5,41,279.1C38.8,211,78.9,125.7,123.2,90L123.2,90z"/>
	<path class="st0" d="M178.9,392.7c-7,0-13.6-3.8-17-9.9c-0.6-1.1-0.2-2.5,0.9-3.1c1.1-0.6,2.5-0.2,3.1,0.9c2.7,4.7,7.6,7.6,13,7.6
		c5.4,0,10.4-2.9,13-7.6c0.6-1.1,2-1.5,3.1-0.9c1.1,0.6,1.5,2,0.9,3.1C192.5,388.9,186,392.7,178.9,392.7L178.9,392.7z"/>
	<g>
		<path class="st1" d="M86.3,245.2c0-51.1,41.5-92.6,92.6-92.6s92.6,41.5,92.6,92.6c0,51.1-41.5,92.6-92.6,92.6
			C127.8,337.8,86.3,296.3,86.3,245.2z"/>
		<g>
			<defs>
				<path id="SVGID_1_" d="M86.3,245.2c0-51.1,41.5-92.6,92.6-92.6s92.6,41.5,92.6,92.6c0,51.1-41.5,92.6-92.6,92.6
					C127.8,337.8,86.3,296.3,86.3,245.2z"/>
			</defs>
			<clipPath id="SVGID_00000120527257278876448500000010744870647386495401_">
				<use xlink:href="#SVGID_1_"  style="overflow:visible;"/>
			</clipPath>
			<g style="clip-path:url(#SVGID_00000120527257278876448500000010744870647386495401_);">
				<path class="st3" d="M132.6,245.2c0-25.6,20.7-46.3,46.3-46.3s46.3,20.7,46.3,46.3c0,25.6-20.7,46.3-46.3,46.3
					S132.6,270.7,132.6,245.2L132.6,245.2z"/>
			</g>
		</g>
	</g>
	<path class="st4" d="M222.1,68.2c3-6.3,4.8-13.3,4.8-20.8c0-26.2-21.2-47.4-47.4-47.4c-17.7,0-33.2,9.7-41.3,24.1
		c-7.9-6.3-17.9-10-28.7-10c-25.6,0-46.3,20.7-46.3,46.3c0,4.8,0.7,9.4,2.1,13.7c-0.7,0-1.4-0.1-2.1-0.1C39.3,74.1,20,93.4,20,117.2
		c0,12.1,5,23,13,30.9c-16.1,4.7-27.9,19.6-27.9,37.2c0,14.9,8.3,27.7,20.6,34.3C10.9,223.4,0,236.9,0,252.9
		c0,17.1,12.5,31.3,28.8,34c-9,5.2-15,15-15,26.1c0,13.3,8.6,24.5,20.5,28.6c-7.2,13.9,4.3,47.7,17.4,67.2
		c7.2-23.4,12.4-43,11.3-56.1c-13.9-21.3-22-46.7-22-73.9c-0.2-6-0.1-12.1,0.4-18.3c0,0.1,0,0.1,0,0.1
		c5.8-56.8,40.2-84.3,70.9-104.3c39.2-25.5,57.5-40.3,67-61.3c9.5,20.9,27.8,35.7,67,61.3c30.7,20,65.2,47.5,71,104.3
		C311.8,143.1,268.4,87.8,222.1,68.2L222.1,68.2z"/>
	<g>
		<g>
			<path class="st3" d="M183.9,614.6l1.4-202.8c0.2-6.2,9.5-6,9.4,0.2l-1,159.3c11,30.2,40.2,34.4,45.5,34.6c5.9,0.2,4.9,8.7,0,8.7
				s-32.5,0-32.5,0l-13.1-11l-0.1,11L183.9,614.6L183.9,614.6z"/>
			<path class="st3" d="M173.3,614.6l-1.4-202.8c-0.2-6.2-9.5-6-9.4,0.2l1,159.3c-11.1,30.2-40.2,34.4-45.5,34.6
				c-5.9,0.2-4.9,8.7,0,8.7s32.5,0,32.5,0l13.1-11l0.1,11L173.3,614.6L173.3,614.6z"/>
		</g>
		<rect x="149" y="426" class="st5" width="26.9" height="91.2"/>
		<rect x="181.3" y="426" class="st5" width="26.9" height="91.2"/>
	</g>
	<g>
		<path d="M233.1,476.4c0,0,0.1-0.1,0.1-0.1c0.3-0.2,0.6-0.4,0.9-0.6c1.5-1.1,19.3-13.6,45.5-11.2c3,0.3,4.9-1.3,5.6-2.9
			c1-2.1,0.2-4.5-2-6.6c-8.3-7.9-25.2-23.4-38.1-35.1c2.5-1.8,4.6-4.2,6.2-7c12.9,11.7,29.9,27.3,38.3,35.3c5.1,4.9,6.6,11.4,4,17.2
			c-2.6,5.7-8.4,8.9-15,8.4c-23.3-2.1-39,9.4-39.1,9.5c-0.1,0-0.1,0.1-0.2,0.1c0,0,0,0-0.1,0.1c-0.3,0.2-0.5,0.3-0.8,0.6
			c-5.9,4.8-8.2,10-6.4,14.5c1.6,4,6.2,6.9,10.4,6.6c2.8-0.2,6.5-2,8.2-9.2c0.6-2.5,3.1-4.1,5.6-3.5c2.5,0.6,4.1,3.1,3.5,5.6
			c-2.2,9.6-8.4,15.8-16.6,16.4c-0.5,0-0.9,0-1.4,0c-4.8,0-9.4-1.9-13-5c2.6,7.3,8.6,12,14.7,11.6c2.6-0.2,4.8,1.8,5,4.4
			s-1.8,4.8-4.4,5c-0.4,0-0.9,0-1.3,0c-10,0-19.4-7.4-23-18.5C216.4,501.4,218.1,486.7,233.1,476.4L233.1,476.4z"/>
		<path d="M124.6,476.4c0,0-0.1-0.1-0.1-0.1c-0.3-0.2-0.6-0.4-0.9-0.6c-1.5-1.1-19.3-13.6-45.5-11.2c-3,0.3-4.9-1.3-5.6-2.9
			c-0.9-2.1-0.2-4.5,1.9-6.6c8.3-7.9,25.2-23.4,38.1-35.1c-2.5-1.8-4.6-4.2-6.2-7c-12.9,11.7-29.9,27.3-38.3,35.3
			c-5.1,4.9-6.6,11.4-4,17.2c2.6,5.7,8.4,8.9,14.9,8.4c23.3-2.1,39,9.4,39.1,9.5c0.1,0,0.1,0.1,0.2,0.1c0,0,0.1,0,0.1,0.1
			c0.3,0.2,0.5,0.3,0.8,0.6c5.9,4.8,8.2,10,6.4,14.5c-1.6,4-6.2,6.9-10.4,6.6c-2.8-0.2-6.5-2-8.2-9.2c-0.6-2.5-3.1-4.1-5.6-3.5
			c-2.5,0.6-4.1,3.1-3.5,5.6c2.2,9.6,8.4,15.8,16.6,16.4c0.5,0,0.9,0,1.4,0c4.8,0,9.4-1.9,13-5c-2.6,7.3-8.6,12-14.7,11.6
			c-2.6-0.2-4.8,1.8-5,4.4s1.8,4.8,4.4,5c0.4,0,0.9,0,1.3,0c10,0,19.4-7.4,23-18.5C141.2,501.4,139.5,486.7,124.6,476.4L124.6,476.4
			z"/>
		<g>
			<path class="st6" d="M178.8,415.1c24.9,0,48.2-6.4,68.5-17.7l28,25.3L246,455.2l-27.5-24.8v75.3h-79.4v-75.3l-27.5,24.8
				l-29.3-32.5l28.1-25.3C130.6,408.7,153.9,415.1,178.8,415.1L178.8,415.1z"/>
			<g>
				<defs>
					<path id="SVGID_00000067919161274210486750000016592486082762651047_" d="M178.8,415.1c24.9,0,48.2-6.4,68.5-17.7l28,25.3
						L246,455.2l-27.5-24.8v75.3h-79.4v-75.3l-27.5,24.8l-29.3-32.5l28.1-25.3C130.6,408.7,153.9,415.1,178.8,415.1L178.8,415.1z"/>
				</defs>
				<clipPath id="SVGID_00000080174644495839261670000010023001196256147382_">
					<use xlink:href="#SVGID_00000067919161274210486750000016592486082762651047_"  style="overflow:visible;"/>
				</clipPath>
				<g style="clip-path:url(#SVGID_00000080174644495839261670000010023001196256147382_);">
					<g>
						<g>
							<path class="st0" d="M65.1,277.2c-0.9,1-1.4,2.2-1.7,3.4c-5.4-4.6-13.4-4-18.1,1.2c-4.7,5.3-4.3,13.4,0.8,18.2
								c-1.2,0.4-2.3,1.1-3.2,2c-2.6,3-2.4,7.5,0.6,10.1c2.9,2.6,7.5,2.4,10.1-0.6l22.1-24.8c2.6-3,2.4-7.5-0.6-10.1
								C72.2,274,67.7,274.3,65.1,277.2z"/>
							<path class="st0" d="M116.7,219.3c-0.9,1-1.4,2.2-1.7,3.4c-5.4-4.6-13.4-4.1-18.1,1.2s-4.3,13.4,0.8,18.2
								c-1.2,0.4-2.3,1.1-3.2,2.1c-2.6,2.9-2.4,7.5,0.6,10.1c2.9,2.6,7.5,2.4,10.1-0.6l22.1-24.8c2.6-3,2.4-7.5-0.6-10.1
								C123.9,216.1,119.4,216.3,116.7,219.3L116.7,219.3z"/>
							<path class="st0" d="M125,276.8c-0.9,1-1.4,2.2-1.7,3.4c-5.4-4.6-13.4-4-18.1,1.2c-4.7,5.3-4.3,13.4,0.8,18.2
								c-1.2,0.4-2.3,1.1-3.2,2c-2.6,3-2.4,7.5,0.6,10.1c2.9,2.6,7.5,2.4,10.1-0.6l22.1-24.8c2.6-3,2.4-7.5-0.6-10.1
								C132.1,273.5,127.6,273.8,125,276.8z"/>
							<path class="st0" d="M176.7,218.8c-0.9,1-1.4,2.2-1.7,3.4c-5.4-4.6-13.4-4-18.1,1.2c-4.7,5.3-4.3,13.4,0.8,18.2
								c-1.2,0.4-2.3,1.1-3.2,2c-2.6,3-2.4,7.5,0.6,10.1c3,2.6,7.5,2.4,10.1-0.6l22.2-24.8c2.6-2.9,2.4-7.5-0.6-10.1
								S179.3,215.9,176.7,218.8L176.7,218.8z"/>
							<path class="st0" d="M168.4,161.4c-0.9,1-1.4,2.2-1.7,3.4c-5.4-4.6-13.4-4.1-18.1,1.2c-4.7,5.3-4.3,13.4,0.8,18.2
								c-1.2,0.4-2.3,1.1-3.2,2.1c-2.6,2.9-2.4,7.5,0.6,10.1c3,2.6,7.5,2.4,10.1-0.6l22.2-24.8c2.6-3,2.4-7.5-0.6-10.1
								C175.6,158.1,171,158.4,168.4,161.4L168.4,161.4z"/>
							<path class="st0" d="M220.1,103.4c-0.9,1-1.4,2.2-1.7,3.4c-5.4-4.6-13.4-4.1-18.1,1.2s-4.3,13.3,0.8,18.2
								c-1.2,0.4-2.3,1.1-3.2,2c-2.6,3-2.4,7.5,0.6,10.1s7.5,2.4,10.1-0.6l22.1-24.8c2.6-2.9,2.4-7.5-0.6-10.1
								C227.2,100.2,222.7,100.5,220.1,103.4L220.1,103.4z"/>
							<path class="st0" d="M228.4,160.9c-0.9,1-1.4,2.2-1.7,3.4c-5.4-4.6-13.4-4-18.1,1.2c-4.7,5.3-4.3,13.4,0.8,18.2
								c-1.2,0.4-2.3,1.1-3.2,2c-2.6,3-2.4,7.5,0.6,10.1c3,2.6,7.5,2.4,10.1-0.6l22.1-24.8c2.6-2.9,2.4-7.5-0.6-10.1
								S231,157.9,228.4,160.9L228.4,160.9z"/>
							<path class="st0" d="M131.4,336.4c-0.9,1-1.4,2.2-1.7,3.4c-5.4-4.6-13.4-4-18.1,1.2c-4.7,5.3-4.3,13.4,0.8,18.2
								c-1.2,0.4-2.3,1.1-3.2,2c-2.6,3-2.4,7.5,0.6,10.1c2.9,2.6,7.5,2.4,10.1-0.6l22.2-24.8c2.6-3,2.4-7.5-0.6-10.1
								C138.5,333.2,134,333.4,131.4,336.4z"/>
							<path class="st0" d="M183,278.4c-0.9,1-1.4,2.2-1.7,3.4c-5.4-4.6-13.4-4-18.1,1.2c-4.7,5.3-4.3,13.4,0.8,18.2
								c-1.2,0.4-2.3,1.1-3.2,2c-2.6,3-2.4,7.5,0.6,10.1c3,2.6,7.5,2.4,10.1-0.6l22.2-24.8c2.6-3,2.4-7.5-0.6-10.1
								C190.2,275.2,185.7,275.5,183,278.4L183,278.4z"/>
							<path class="st0" d="M191.3,335.9c-0.9,1-1.4,2.2-1.7,3.4c-5.4-4.6-13.4-4-18.1,1.2c-4.7,5.3-4.3,13.4,0.8,18.2
								c-1.2,0.4-2.3,1.1-3.2,2c-2.6,3-2.4,7.5,0.6,10.1c2.9,2.6,7.5,2.4,10.1-0.6l22.1-24.8c2.6-3,2.4-7.5-0.6-10.1
								C198.5,332.7,193.9,332.9,191.3,335.9L191.3,335.9z"/>
							<path class="st0" d="M243,278c-0.9,1-1.4,2.2-1.7,3.4c-5.4-4.6-13.4-4-18.1,1.2c-4.7,5.3-4.3,13.4,0.8,18.2
								c-1.2,0.4-2.3,1.1-3.2,2c-2.6,3-2.4,7.5,0.6,10.1c3,2.6,7.5,2.4,10.1-0.6l22.1-24.8c2.6-3,2.4-7.5-0.6-10.1
								C250.1,274.7,245.6,275,243,278L243,278z"/>
							<path class="st0" d="M234.7,220.5c-0.9,1-1.4,2.2-1.7,3.4c-5.4-4.6-13.4-4-18.1,1.2c-4.7,5.3-4.3,13.4,0.8,18.2
								c-1.2,0.4-2.3,1.1-3.2,2c-2.6,3-2.4,7.5,0.6,10.1c3,2.6,7.5,2.4,10.1-0.6l22.1-24.8c2.6-2.9,2.4-7.5-0.6-10.1
								C241.9,217.3,237.3,217.5,234.7,220.5L234.7,220.5z"/>
							<path class="st0" d="M286.4,162.5c-0.9,1-1.4,2.2-1.7,3.4c-5.4-4.6-13.4-4-18.1,1.2c-4.7,5.3-4.3,13.4,0.8,18.2
								c-1.2,0.4-2.3,1.1-3.2,2c-2.6,3-2.4,7.5,0.6,10.1c3,2.6,7.5,2.4,10.1-0.6l22.1-24.8c2.6-2.9,2.4-7.5-0.6-10.1
								C293.5,159.3,289,159.6,286.4,162.5L286.4,162.5z"/>
							<path class="st0" d="M294.7,220c-0.9,1-1.4,2.2-1.7,3.4c-5.4-4.6-13.4-4.1-18.1,1.2c-4.7,5.3-4.3,13.4,0.8,18.2
								c-1.2,0.4-2.3,1.1-3.2,2.1c-2.6,2.9-2.4,7.5,0.6,10.1c3,2.6,7.5,2.4,10.1-0.6l22.1-24.8c2.6-3,2.4-7.5-0.6-10.1
								C301.8,216.8,297.3,217.1,294.7,220L294.7,220z"/>
							<path class="st0" d="M249.3,337.6c-0.9,1-1.4,2.2-1.7,3.4c-5.4-4.6-13.4-4-18.1,1.2c-4.7,5.3-4.3,13.4,0.8,18.2
								c-1.2,0.4-2.3,1.1-3.2,2c-2.6,3-2.4,7.5,0.6,10.1c3,2.6,7.5,2.4,10.1-0.6l22.2-24.8c2.6-3,2.4-7.5-0.6-10.1
								C256.5,334.4,251.9,334.6,249.3,337.6L249.3,337.6z"/>
							<path class="st0" d="M257.6,395c-0.9,1-1.4,2.2-1.7,3.4c-5.4-4.6-13.4-4-18.1,1.2c-4.7,5.3-4.3,13.4,0.8,18.2
								c-1.2,0.4-2.3,1.1-3.2,2c-2.6,3-2.4,7.5,0.6,10.1c3,2.6,7.5,2.4,10.1-0.6l22.2-24.8c2.6-3,2.4-7.5-0.6-10.1
								S260.2,392.1,257.6,395L257.6,395z"/>
							<path class="st0" d="M309.3,337.1c-0.9,1-1.4,2.2-1.7,3.4c-5.4-4.6-13.4-4-18.1,1.2c-4.7,5.3-4.3,13.4,0.8,18.2
								c-1.2,0.4-2.3,1.1-3.2,2c-2.6,3-2.4,7.5,0.6,10.1c3,2.6,7.5,2.4,10.1-0.6l22.1-24.8c2.6-3,2.4-7.5-0.6-10.1
								C316.4,333.9,311.9,334.1,309.3,337.1L309.3,337.1z"/>
							<path class="st0" d="M301,279.6c-0.9,1-1.4,2.2-1.7,3.4c-5.4-4.6-13.4-4-18.1,1.2s-4.3,13.4,0.8,18.2c-1.2,0.4-2.3,1.1-3.2,2
								c-2.6,3-2.4,7.5,0.6,10.1s7.5,2.4,10.1-0.6l22.1-24.8c2.6-3,2.4-7.5-0.6-10.1C308.2,276.4,303.6,276.7,301,279.6L301,279.6z"
								/>
							<path class="st0" d="M352.7,221.7c-0.9,1-1.4,2.2-1.7,3.4c-5.4-4.6-13.4-4.1-18.1,1.2s-4.3,13.4,0.8,18.2
								c-1.2,0.4-2.3,1.1-3.2,2.1c-2.6,2.9-2.4,7.5,0.6,10.1c3,2.6,7.5,2.4,10.1-0.6l22.1-24.8c2.6-2.9,2.4-7.5-0.6-10.1
								C359.8,218.5,355.3,218.7,352.7,221.7L352.7,221.7z"/>
							<path class="st0" d="M361,279.2c-0.9,1-1.4,2.2-1.7,3.4c-5.4-4.6-13.4-4-18.1,1.2c-4.7,5.3-4.3,13.4,0.8,18.2
								c-1.2,0.4-2.3,1.1-3.2,2c-2.6,3-2.4,7.5,0.6,10.1c3,2.6,7.5,2.4,10.1-0.6l22.1-24.8c2.6-3,2.4-7.5-0.6-10.1
								S363.6,276.2,361,279.2L361,279.2z"/>
							<path class="st0" d="M264,454.7c-0.9,1-1.4,2.2-1.7,3.4c-5.4-4.6-13.4-4-18.1,1.2c-4.7,5.3-4.3,13.4,0.8,18.2
								c-1.2,0.4-2.3,1.1-3.2,2c-2.6,3-2.4,7.5,0.6,10.1c3,2.6,7.5,2.4,10.1-0.6l22.2-24.8c2.6-3,2.4-7.5-0.6-10.1
								C271.1,451.4,266.6,451.7,264,454.7L264,454.7z"/>
							<path class="st0" d="M315.6,396.7c-0.9,1-1.4,2.2-1.7,3.4c-5.4-4.6-13.4-4-18.1,1.2c-4.7,5.3-4.3,13.4,0.8,18.2
								c-1.2,0.4-2.3,1.1-3.2,2c-2.6,3-2.4,7.5,0.6,10.1c3,2.6,7.5,2.4,10.1-0.6l22.1-24.8c2.6-3,2.4-7.5-0.6-10.1
								S318.2,393.8,315.6,396.7L315.6,396.7z"/>
							<path class="st0" d="M323.9,454.2c-0.9,1-1.4,2.2-1.7,3.4c-5.4-4.6-13.4-4-18.1,1.2c-4.7,5.3-4.3,13.4,0.8,18.2
								c-1.2,0.4-2.3,1.1-3.2,2c-2.6,3-2.4,7.5,0.6,10.1c3,2.6,7.5,2.4,10.1-0.6l22.1-24.8c2.6-3,2.4-7.5-0.6-10.1
								C331,451,326.5,451.2,323.9,454.2L323.9,454.2z"/>
							<path class="st0" d="M375.6,396.2c-0.9,1-1.4,2.2-1.7,3.4c-5.4-4.6-13.4-4-18.1,1.2s-4.3,13.4,0.8,18.2
								c-1.2,0.4-2.3,1.1-3.2,2c-2.6,3-2.4,7.5,0.6,10.1c3,2.6,7.5,2.4,10.1-0.6l22.1-24.8c2.6-3,2.4-7.5-0.6-10.1
								C382.7,393,378.2,393.3,375.6,396.2L375.6,396.2z"/>
							<path class="st0" d="M367.3,338.8c-0.9,1-1.4,2.2-1.7,3.4c-5.4-4.6-13.4-4-18.1,1.2c-4.7,5.3-4.3,13.4,0.8,18.2
								c-1.2,0.4-2.3,1.1-3.2,2c-2.6,3-2.4,7.5,0.6,10.1c3,2.6,7.5,2.4,10.1-0.6l22.1-24.8c2.6-3,2.4-7.5-0.6-10.1
								C374.4,335.6,369.9,335.8,367.3,338.8L367.3,338.8z"/>
							<path class="st0" d="M419,280.8c-0.9,1-1.4,2.2-1.7,3.4c-5.4-4.6-13.4-4-18.1,1.2c-4.7,5.3-4.3,13.4,0.8,18.2
								c-1.2,0.4-2.3,1.1-3.2,2c-2.6,3-2.4,7.5,0.6,10.1c3,2.6,7.5,2.4,10.1-0.6l22.1-24.8c2.6-3,2.4-7.5-0.6-10.1
								S421.6,277.9,419,280.8L419,280.8z"/>
							<path class="st0" d="M427.3,338.3c-0.9,1-1.4,2.2-1.7,3.4c-5.4-4.6-13.4-4-18.1,1.2c-4.7,5.3-4.3,13.4,0.8,18.2
								c-1.2,0.4-2.3,1.1-3.2,2c-2.6,3-2.4,7.5,0.6,10.1c3,2.6,7.5,2.4,10.1-0.6l22.2-24.8c2.6-3,2.4-7.5-0.6-10.1
								C434.4,335.1,429.9,335.3,427.3,338.3L427.3,338.3z"/>
						</g>
						<g>
							<path class="st0" d="M292.6,277.2c0.9,1,1.4,2.2,1.7,3.4c5.4-4.6,13.4-4,18.1,1.2c4.7,5.3,4.3,13.4-0.8,18.2
								c1.2,0.4,2.3,1.1,3.2,2c2.6,3,2.4,7.5-0.6,10.1c-3,2.6-7.5,2.4-10.1-0.6l-22.1-24.8c-2.6-3-2.4-7.5,0.6-10.1
								S290,274.3,292.6,277.2L292.6,277.2z"/>
							<path class="st0" d="M240.9,219.3c0.9,1,1.4,2.2,1.7,3.4c5.4-4.6,13.4-4.1,18.1,1.2c4.7,5.3,4.3,13.4-0.8,18.2
								c1.2,0.4,2.3,1.1,3.2,2.1c2.6,2.9,2.4,7.5-0.6,10.1s-7.5,2.4-10.1-0.6l-22.1-24.8c-2.6-3-2.4-7.5,0.6-10.1
								S238.3,216.3,240.9,219.3L240.9,219.3z"/>
							<path class="st0" d="M232.6,276.8c0.9,1,1.4,2.2,1.7,3.4c5.4-4.6,13.4-4,18.1,1.2c4.7,5.3,4.3,13.4-0.8,18.2
								c1.2,0.4,2.3,1.1,3.2,2c2.6,3,2.4,7.5-0.6,10.1c-3,2.6-7.5,2.4-10.1-0.6L222,286.3c-2.6-3-2.4-7.5,0.6-10.1
								C225.5,273.5,230,273.8,232.6,276.8L232.6,276.8z"/>
							<path class="st0" d="M180.9,218.8c0.9,1,1.4,2.2,1.7,3.4c5.4-4.6,13.4-4,18.1,1.2c4.7,5.3,4.3,13.4-0.8,18.2
								c1.2,0.4,2.3,1.1,3.2,2c2.6,3,2.4,7.5-0.6,10.1c-3,2.6-7.5,2.4-10.1-0.6l-22.1-24.8c-2.6-2.9-2.4-7.5,0.6-10.1
								C173.8,215.6,178.3,215.9,180.9,218.8L180.9,218.8z"/>
							<path class="st0" d="M189.2,161.4c0.9,1,1.4,2.2,1.7,3.4c5.4-4.6,13.4-4.1,18.1,1.2c4.7,5.3,4.3,13.4-0.8,18.2
								c1.2,0.4,2.3,1.1,3.2,2.1c2.6,2.9,2.4,7.5-0.6,10.1c-3,2.6-7.5,2.4-10.1-0.6l-22.1-24.8c-2.6-3-2.4-7.5,0.6-10.1
								S186.6,158.4,189.2,161.4L189.2,161.4z"/>
							<path class="st0" d="M137.5,103.4c0.9,1,1.4,2.2,1.7,3.4c5.4-4.6,13.4-4.1,18.1,1.2c4.7,5.3,4.3,13.3-0.8,18.2
								c1.2,0.4,2.3,1.1,3.2,2c2.6,3,2.4,7.5-0.6,10.1c-3,2.6-7.5,2.4-10.1-0.6l-22.2-24.8c-2.6-2.9-2.4-7.5,0.6-10.1
								C130.4,100.2,134.9,100.5,137.5,103.4z"/>
							<path class="st0" d="M129.3,160.9c0.9,1,1.4,2.2,1.7,3.4c5.4-4.6,13.4-4,18.1,1.2c4.7,5.3,4.3,13.4-0.8,18.2
								c1.2,0.4,2.3,1.1,3.2,2c2.6,3,2.4,7.5-0.6,10.1c-2.9,2.6-7.5,2.4-10.1-0.6l-22.1-24.8c-2.6-2.9-2.4-7.5,0.6-10.1
								C122.1,157.7,126.6,157.9,129.3,160.9L129.3,160.9z"/>
							<path class="st0" d="M226.3,336.4c0.9,1,1.4,2.2,1.7,3.4c5.4-4.6,13.4-4,18.1,1.2c4.7,5.3,4.3,13.4-0.8,18.2
								c1.2,0.4,2.3,1.1,3.2,2c2.6,3,2.4,7.5-0.6,10.1s-7.5,2.4-10.1-0.6l-22.1-24.8c-2.6-3-2.4-7.5,0.6-10.1
								C219.2,333.2,223.7,333.4,226.3,336.4L226.3,336.4z"/>
							<path class="st0" d="M174.6,278.4c0.9,1,1.4,2.2,1.7,3.4c5.4-4.6,13.4-4,18.1,1.2s4.3,13.4-0.8,18.2c1.2,0.4,2.3,1.1,3.2,2
								c2.6,3,2.4,7.5-0.6,10.1c-3,2.6-7.5,2.4-10.1-0.6l-22.1-24.8c-2.6-3-2.4-7.5,0.6-10.1C167.5,275.2,172,275.5,174.6,278.4
								L174.6,278.4z"/>
							<path class="st0" d="M166.3,335.9c0.9,1,1.4,2.2,1.7,3.4c5.4-4.6,13.4-4,18.1,1.2s4.3,13.4-0.8,18.2c1.2,0.4,2.3,1.1,3.2,2
								c2.6,3,2.4,7.5-0.6,10.1s-7.5,2.4-10.1-0.6l-22.1-24.8c-2.6-3-2.4-7.5,0.6-10.1C159.2,332.7,163.7,332.9,166.3,335.9
								L166.3,335.9z"/>
							<path class="st0" d="M114.7,278c0.9,1,1.4,2.2,1.7,3.4c5.4-4.6,13.4-4,18.1,1.2c4.7,5.3,4.3,13.4-0.8,18.2
								c1.2,0.4,2.3,1.1,3.2,2c2.6,3,2.4,7.5-0.6,10.1c-3,2.6-7.5,2.4-10.1-0.6L104,287.5c-2.6-3-2.4-7.5,0.6-10.1
								C107.5,274.7,112,275,114.7,278z"/>
							<path class="st0" d="M122.9,220.5c0.9,1,1.4,2.2,1.7,3.4c5.4-4.6,13.4-4,18.1,1.2c4.7,5.3,4.3,13.4-0.8,18.2
								c1.2,0.4,2.3,1.1,3.2,2c2.6,3,2.4,7.5-0.6,10.1c-2.9,2.6-7.5,2.4-10.1-0.6L112.3,230c-2.6-2.9-2.4-7.5,0.6-10.1
								C115.8,217.3,120.3,217.5,122.9,220.5L122.9,220.5z"/>
							<path class="st0" d="M71.2,162.5c0.9,1,1.4,2.2,1.7,3.4c5.4-4.6,13.4-4,18.1,1.2c4.7,5.3,4.3,13.4-0.8,18.2
								c1.2,0.4,2.3,1.1,3.2,2c2.6,3,2.4,7.5-0.6,10.1c-2.9,2.6-7.5,2.4-10.1-0.6l-22.1-24.8c-2.6-2.9-2.4-7.5,0.6-10.1
								S68.6,159.6,71.2,162.5L71.2,162.5z"/>
							<path class="st0" d="M63,220c0.9,1,1.4,2.2,1.7,3.4c5.4-4.6,13.4-4.1,18.1,1.2s4.3,13.4-0.8,18.2c1.2,0.4,2.3,1.1,3.2,2.1
								c2.6,2.9,2.4,7.5-0.6,10.1s-7.5,2.4-10.1-0.6l-22.1-24.8c-2.6-3-2.4-7.5,0.6-10.1C55.8,216.8,60.4,217.1,63,220L63,220z"/>
							<path class="st0" d="M108.3,337.6c0.9,1,1.4,2.2,1.7,3.4c5.4-4.6,13.4-4,18.1,1.2c4.7,5.3,4.3,13.4-0.8,18.2
								c1.2,0.4,2.3,1.1,3.2,2c2.6,3,2.4,7.5-0.6,10.1c-3,2.6-7.5,2.4-10.1-0.6l-22.1-24.8c-2.6-3-2.4-7.5,0.6-10.1
								C101.2,334.4,105.7,334.6,108.3,337.6z"/>
							<path class="st0" d="M100,395c0.9,1,1.4,2.2,1.7,3.4c5.4-4.6,13.4-4,18.1,1.2c4.7,5.3,4.3,13.4-0.8,18.2
								c1.2,0.4,2.3,1.1,3.2,2c2.6,3,2.4,7.5-0.6,10.1c-2.9,2.6-7.5,2.4-10.1-0.6l-22.1-24.8c-2.6-3-2.4-7.5,0.6-10.1
								C92.9,391.8,97.4,392.1,100,395z"/>
							<path class="st0" d="M48.4,337.1c0.9,1,1.4,2.2,1.7,3.4c5.4-4.6,13.4-4,18.1,1.2c4.7,5.3,4.3,13.4-0.8,18.2
								c1.2,0.4,2.3,1.1,3.2,2c2.6,3,2.4,7.5-0.6,10.1c-2.9,2.6-7.5,2.4-10.1-0.6l-22.2-24.8c-2.6-3-2.4-7.5,0.6-10.1
								C41.2,333.9,45.7,334.1,48.4,337.1z"/>
							<path class="st0" d="M56.6,279.6c0.9,1,1.4,2.2,1.7,3.4c5.4-4.6,13.4-4,18.1,1.2c4.7,5.3,4.3,13.4-0.8,18.2
								c1.2,0.4,2.3,1.1,3.2,2c2.6,3,2.4,7.5-0.6,10.1s-7.5,2.4-10.1-0.6L46,289.1c-2.6-3-2.4-7.5,0.6-10.1
								C49.5,276.4,54,276.7,56.6,279.6z"/>
							<path class="st0" d="M4.9,221.7c0.9,1,1.4,2.2,1.7,3.4c5.4-4.6,13.4-4.1,18.1,1.2c4.7,5.3,4.3,13.4-0.8,18.2
								c1.2,0.4,2.3,1.1,3.2,2.1c2.6,2.9,2.4,7.5-0.6,10.1S19,259,16.4,256l-22.2-24.8c-2.6-2.9-2.4-7.5,0.6-10.1
								C-2.2,218.5,2.3,218.7,4.9,221.7L4.9,221.7z"/>
							<path class="st0" d="M-3.3,279.2c0.9,1,1.4,2.2,1.7,3.4c5.4-4.6,13.4-4,18.1,1.2c4.7,5.3,4.3,13.4-0.8,18.2
								c1.2,0.4,2.3,1.1,3.2,2c2.6,3,2.4,7.5-0.6,10.1c-2.9,2.6-7.5,2.4-10.1-0.6L-14,288.7c-2.6-3-2.4-7.5,0.6-10.1
								C-10.5,275.9-5.9,276.2-3.3,279.2z"/>
							<path class="st0" d="M93.7,454.7c0.9,1,1.4,2.2,1.7,3.4c5.4-4.6,13.4-4,18.1,1.2c4.7,5.3,4.3,13.4-0.8,18.2
								c1.2,0.4,2.3,1.1,3.2,2c2.6,3,2.4,7.5-0.6,10.1c-2.9,2.6-7.5,2.4-10.1-0.6L83,464.2c-2.6-3-2.4-7.5,0.6-10.1
								C86.6,451.4,91.1,451.7,93.7,454.7z"/>
							<path class="st0" d="M42,396.7c0.9,1,1.4,2.2,1.7,3.4c5.4-4.6,13.4-4,18.1,1.2c4.7,5.3,4.3,13.4-0.8,18.2
								c1.2,0.4,2.3,1.1,3.2,2c2.6,3,2.4,7.5-0.6,10.1c-2.9,2.6-7.5,2.4-10.1-0.6l-22.2-24.8c-2.6-3-2.4-7.5,0.6-10.1
								C34.9,393.5,39.4,393.8,42,396.7z"/>
							<path class="st0" d="M33.7,454.2c0.9,1,1.4,2.2,1.7,3.4c5.4-4.6,13.4-4,18.1,1.2c4.7,5.3,4.3,13.4-0.8,18.2
								c1.2,0.4,2.3,1.1,3.2,2c2.6,3,2.4,7.5-0.6,10.1c-2.9,2.6-7.5,2.4-10.1-0.6l-22.2-24.8c-2.6-3-2.4-7.5,0.6-10.1
								C26.6,451,31.1,451.2,33.7,454.2z"/>
							<path class="st0" d="M-17.9,396.2c0.9,1,1.4,2.2,1.7,3.4c5.4-4.6,13.4-4,18.1,1.2c4.7,5.3,4.3,13.4-0.8,18.2
								c1.2,0.4,2.3,1.1,3.2,2c2.6,3,2.4,7.5-0.6,10.1c-2.9,2.6-7.5,2.4-10.1-0.6l-22.2-24.8c-2.6-3-2.4-7.5,0.6-10.1
								S-20.6,393.3-17.9,396.2z"/>
							<path class="st0" d="M-9.7,338.8c0.9,1,1.4,2.2,1.7,3.4c5.4-4.6,13.4-4,18.1,1.2c4.7,5.3,4.3,13.4-0.8,18.2
								c1.2,0.4,2.3,1.1,3.2,2c2.6,3,2.4,7.5-0.6,10.1s-7.5,2.4-10.1-0.6l-22.2-24.8c-2.6-3-2.4-7.5,0.6-10.1
								C-16.8,335.6-12.3,335.8-9.7,338.8z"/>
							<path class="st0" d="M-61.4,280.8c0.9,1,1.4,2.2,1.7,3.4c5.4-4.6,13.4-4,18.1,1.2c4.7,5.3,4.3,13.4-0.8,18.2
								c1.2,0.4,2.3,1.1,3.2,2c2.6,3,2.4,7.5-0.6,10.1c-3,2.6-7.5,2.4-10.1-0.6L-72,290.3c-2.6-3-2.4-7.5,0.6-10.1
								C-68.5,277.6-64,277.9-61.4,280.8z"/>
							<path class="st0" d="M-69.6,338.3c0.9,1,1.4,2.2,1.7,3.4c5.4-4.6,13.4-4,18.1,1.2c4.7,5.3,4.3,13.4-0.8,18.2
								c1.2,0.4,2.3,1.1,3.2,2c2.6,3,2.4,7.5-0.6,10.1s-7.5,2.4-10.1-0.6l-22.2-24.8c-2.6-3-2.4-7.5,0.6-10.1
								C-76.8,335.1-72.2,335.4-69.6,338.3L-69.6,338.3z"/>
						</g>
					</g>
				</g>
			</g>
		</g>
		<g>
			<path class="st0" d="M162,488c-4,0-7.1-3.2-7.1-7.1c0-4,3.2-7.1,7.1-7.1c1.3,0,2.6,0.4,3.6,1c0.2-7,5.9-12.7,13-12.7
				c7.1,0,12.8,5.7,13,12.7c1.1-0.6,2.3-1,3.6-1c4,0,7.1,3.2,7.1,7.1c0,4-3.2,7.1-7.1,7.1H162z"/>
			<path class="st0" d="M154.2,430.2c1.1-0.6,2.3-1,3.6-1c3.9,0,7.1,3.2,7.1,7.1c0,4-3.2,7.1-7.1,7.1h-18.8v-25.8
				c0.7-0.1,1.4-0.2,2.1-0.2C148.3,417.5,154.1,423.2,154.2,430.2z"/>
			<path class="st0" d="M202.3,443.5c-4,0-7.1-3.2-7.1-7.1c0-4,3.2-7.1,7.1-7.1c1.3,0,2.6,0.4,3.6,1c0.2-6.9,5.7-12.5,12.6-12.7v26
				H202.3L202.3,443.5z"/>
		</g>
	</g>
	<path class="st8" d="M340.2,357.4c-6-19.8-27-31.1-46.8-25.1c-1.7,0.5-2.6,2.3-2.1,3.9s2.3,2.6,3.9,2.1c8-2.4,16.4-1.6,23.8,2.4
		c7.4,3.9,12.7,10.5,15.1,18.5c2.4,8,1.6,16.4-2.4,23.8c-3.9,7.4-10.5,12.7-18.5,15.1c-16.2,4.9-33.6-4.4-38.9-20.5
		c-1.6,1.6-3.3,3.1-5,4.6c6.4,15.8,22.8,25.3,39.5,23.2c2.1-0.3,4.1-0.7,6.2-1.3C335,398.2,346.2,377.2,340.2,357.4L340.2,357.4z"/>
	<path class="st8" d="M18,357.4c6-19.8,27-31.1,46.8-25.1c1.7,0.5,2.6,2.3,2.1,3.9s-2.3,2.6-3.9,2.1c-8-2.4-16.4-1.6-23.8,2.4
		c-7.4,3.9-12.7,10.5-15.2,18.5c-2.4,8-1.6,16.4,2.4,23.8c3.9,7.4,10.5,12.7,18.5,15.1c16.2,4.9,33.6-4.4,38.9-20.5
		c1.6,1.6,3.3,3.1,5,4.6c-6.4,15.8-22.8,25.3-39.5,23.2c-2.1-0.3-4.1-0.7-6.2-1.3C23.2,398.2,12,377.2,18,357.4L18,357.4z"/>
</g>
</svg>
