<?xml version="1.0" encoding="utf-8"?>
<!-- Generator: Adobe Illustrator 26.4.1, SVG Export Plug-In . SVG Version: 6.00 Build 0)  -->
<!DOCTYPE svg PUBLIC "-//W3C//DTD SVG 1.1//EN" "http://www.w3.org/Graphics/SVG/1.1/DTD/svg11.dtd" [
	<!ENTITY ns_extend "http://ns.adobe.com/Extensibility/1.0/">
	<!ENTITY ns_ai "http://ns.adobe.com/AdobeIllustrator/10.0/">
	<!ENTITY ns_graphs "http://ns.adobe.com/Graphs/1.0/">
	<!ENTITY ns_vars "http://ns.adobe.com/Variables/1.0/">
	<!ENTITY ns_imrep "http://ns.adobe.com/ImageReplacement/1.0/">
	<!ENTITY ns_sfw "http://ns.adobe.com/SaveForWeb/1.0/">
	<!ENTITY ns_custom "http://ns.adobe.com/GenericCustomNamespace/1.0/">
	<!ENTITY ns_adobe_xpath "http://ns.adobe.com/XPath/1.0/">
]>
<svg version="1.1"
	 id="Layer_2_00000016058784028012465780000003483073258253190538_" xmlns:x="&ns_extend;" xmlns:i="&ns_ai;" xmlns:graph="&ns_graphs;"
	 xmlns="http://www.w3.org/2000/svg" xmlns:xlink="http://www.w3.org/1999/xlink" x="0px" y="0px" viewBox="0 0 341.9 614.6"
	 style="enable-background:new 0 0 341.9 614.6;" xml:space="preserve">
<style type="text/css">
	.st0{fill-rule:evenodd;clip-rule:evenodd;fill:#FFFFFF;}
	.st1{fill-rule:evenodd;clip-rule:evenodd;}
	.st2{fill:#663300;}
	
		.st3{clip-path:url(#SVGID_00000011740934087974826010000011452934836423173023_);fill-rule:evenodd;clip-rule:evenodd;fill:none;stroke:#000000;stroke-width:1.4374;stroke-miterlimit:10;}
	.st4{fill:#FFFFFF;}
	.st5{fill-rule:evenodd;clip-rule:evenodd;fill:#CD0000;}
	.st6{fill:#BB4F9F;}
	
		.st7{clip-path:url(#SVGID_00000101826145227360617500000003820031254548731046_);fill-rule:evenodd;clip-rule:evenodd;fill:none;stroke:#000000;stroke-width:1.4374;stroke-miterlimit:10;}
	.st8{fill:#186735;}
	
		.st9{fill-rule:evenodd;clip-rule:evenodd;fill:none;stroke:#FFFFFF;stroke-width:4.6064;stroke-linecap:round;stroke-miterlimit:3.8637;}
	.st10{fill-rule:evenodd;clip-rule:evenodd;fill:#FFCE08;}
	
		.st11{fill-rule:evenodd;clip-rule:evenodd;fill:none;stroke:#FFFFFF;stroke-width:4.5945;stroke-linecap:round;stroke-miterlimit:3.8637;}
	
		.st12{fill-rule:evenodd;clip-rule:evenodd;fill:none;stroke:#FFFFFF;stroke-width:1.619;stroke-linecap:round;stroke-miterlimit:3.8637;}
	.st13{opacity:0.8;fill:#CD0000;}
	.st14{fill:none;stroke:#CD0000;stroke-width:23.5217;stroke-linecap:round;stroke-linejoin:round;stroke-miterlimit:10;}
	.st15{fill:#003366;}
</style>
<metadata>
	<sfw  xmlns="&ns_sfw;">
		<slices></slices>
		<sliceSourceBounds  bottomLeftOrigin="true" height="559.5" width="340.5" x="558.4" y="0"></sliceSourceBounds>
	</sfw>
</metadata>
<g>
	<path d="M115.1,89.8c2.1-1.7,4.2-3.3,6.4-4.8c14.1-9.5,31.2-15.1,49.5-15.1c18.3,0,35.4,5.6,49.5,15.1c2.8,1.9,5.6,4,8.2,6.2
		c43.6,36.6,82.7,120.4,80.5,187.1c0,75.8-61.8,137.1-138.1,137.1C94.8,415.5,33,354.4,32.8,279C30.6,210.8,70.7,125.6,115.1,89.8z"
		/>
	<path class="st0" d="M263.6,245.1c0-51.2-41.5-92.6-92.6-92.6c-51.2,0-92.6,41.5-92.6,92.6c0,51.2,41.5,92.6,92.6,92.6
		C222.1,337.8,263.6,296.3,263.6,245.1z"/>
	<path class="st1" d="M217.3,245.1c0-25.6-20.7-46.3-46.3-46.3c-25.6,0-46.3,20.7-46.3,46.3c0,25.6,20.7,46.3,46.3,46.3
		C196.5,291.4,217.3,270.7,217.3,245.1z"/>
</g>
<path class="st2" d="M328.3,319.3c-0.5-2.2-1-4.5-1.6-6.8c-10-41.5-2.7-58.7-17.7-132.2C282.9,51.5,183.7,39.4,170.9,67.8
	C158.2,39.4,59,51.5,32.8,180.3c-15,73.5-7.7,90.7-17.7,132.2c-0.6,2.3-1.1,4.6-1.6,6.8c-7.5,25.3-15.1,47.4-12.4,75.6
	c0,0,1.5-8.4,10.1-14.3c5.8,70.7,58.3,83.4,94.8,76.6c24.7-4.6,43.6-9.8,64.8-9.8c21.2,0,40.1,5.2,64.8,9.8
	c36.5,6.8,89-5.9,94.8-76.6c8.6,5.9,10.1,14.3,10.1,14.3C343.4,366.7,335.8,344.6,328.3,319.3z M170.9,415.5
	c-62.5,0-115.3-41.2-132.4-97.7c5.4-34.5,29.6-32.6,72.4-56.3c48.9-27.1,55.1-54.3,59.8-107.4c0,0.3,0.1,0.6,0.1,0.9
	c0-0.3,0.1-0.6,0.1-0.9c4.8,53.1,10.9,80.3,59.8,107.4c42.9,23.7,67,21.8,72.4,56.3C286.3,374.3,233.5,415.5,170.9,415.5z"/>
<g>
	<g>
		<g>
			<g>
				<path d="M155,431.7l0.9,139.5c-3.8,10.5-9.8,17.8-16.3,23c6.9,4.6,15.4,5.1,25.9,0.9l-1.1-163.4H155z"/>
				<path d="M186,571.3l0.9-139.5h-9.4l-1.1,163.4c10.5,4.2,19,3.6,25.9-0.9C195.9,589.1,189.9,581.7,186,571.3z"/>
			</g>
			<g>
				<defs>
					<path id="SVGID_1_" d="M105.7,610c-0.2,1.3,0,2.8,0.6,4.6l60.3,0c0.4-1.1,0.6-2.7,0.7-4.6H105.7z"/>
				</defs>
				<use xlink:href="#SVGID_1_"  style="overflow:visible;fill:#FFFFFF;"/>
				<clipPath id="SVGID_00000006672382707839429890000003012515725424274355_">
					<use xlink:href="#SVGID_1_"  style="overflow:visible;"/>
				</clipPath>
				
					<line style="clip-path:url(#SVGID_00000006672382707839429890000003012515725424274355_);fill-rule:evenodd;clip-rule:evenodd;fill:none;stroke:#000000;stroke-width:1.4374;stroke-miterlimit:10;" x1="168.1" y1="612.3" x2="102.8" y2="612.3"/>
			</g>
			<path class="st4" d="M111,605.4c-3.4,0.6-5,2.2-5.3,4.6h16v-6.9C118.7,603.9,115.2,604.6,111,605.4z"/>
			<path class="st5" d="M137.6,595.8c1.8-3.8,2.5-7.3,2.5-7.3s6.8,0.2,7.5,9.4C146,608.7,137.6,595.8,137.6,595.8z"/>
			<path class="st6" d="M165.5,595.1c-11,4.4-19.9,3.6-27-1.6c-4.7,5.4-9.3,7.7-16.8,9.6v6.9h45.5
				C167.5,605.7,167.1,599.9,165.5,595.1z"/>
			<g>
				<path class="st4" d="M139.5,599.4c0,1.1-0.8,1.9-1.9,1.9c-1.1,0-1.9-0.8-1.9-1.9c0-1.1,0.8-1.9,1.9-1.9
					C138.6,597.5,139.5,598.3,139.5,599.4z"/>
				<path class="st4" d="M132,603.9c0,1.1-0.8,1.9-1.9,1.9c-1.1,0-1.9-0.8-1.9-1.9c0-1.1,0.8-1.9,1.9-1.9
					C131.1,602,132,602.8,132,603.9z"/>
			</g>
			<g>
				<defs>
					<path id="SVGID_00000180327881969490799930000015631952193407274404_" d="M236.2,610c0.2,1.3,0,2.8-0.6,4.6l-60.3,0
						c-0.4-1.1-0.6-2.7-0.7-4.6H236.2z"/>
				</defs>
				<use xlink:href="#SVGID_00000180327881969490799930000015631952193407274404_"  style="overflow:visible;fill:#FFFFFF;"/>
				<clipPath id="SVGID_00000135671949973616974900000005199896615272993434_">
					<use xlink:href="#SVGID_00000180327881969490799930000015631952193407274404_"  style="overflow:visible;"/>
				</clipPath>
				
					<line style="clip-path:url(#SVGID_00000135671949973616974900000005199896615272993434_);fill-rule:evenodd;clip-rule:evenodd;fill:none;stroke:#000000;stroke-width:1.4374;stroke-miterlimit:10;" x1="173.8" y1="612.3" x2="239.1" y2="612.3"/>
			</g>
			<path class="st4" d="M230.9,605.4c3.4,0.6,5,2.2,5.3,4.6h-16v-6.9C223.2,603.9,226.7,604.6,230.9,605.4z"/>
			<path class="st5" d="M204.3,595.8c-1.8-3.8-2.5-7.3-2.5-7.3s-6.8,0.2-7.5,9.4C195.9,608.7,204.3,595.8,204.3,595.8z"/>
			<path class="st6" d="M176.4,595.1c11,4.4,19.9,3.6,27-1.6c4.7,5.4,9.3,7.7,16.8,9.6v6.9h-45.5
				C174.4,605.7,174.8,599.9,176.4,595.1z"/>
			<g>
				<path class="st4" d="M202.4,599.4c0,1.1,0.8,1.9,1.9,1.9c1.1,0,1.9-0.8,1.9-1.9c0-1.1-0.8-1.9-1.9-1.9
					C203.3,597.5,202.4,598.3,202.4,599.4z"/>
				<path class="st4" d="M209.9,603.9c0,1.1,0.8,1.9,1.9,1.9c1.1,0,1.9-0.8,1.9-1.9c0-1.1-0.8-1.9-1.9-1.9
					C210.8,602,209.9,602.8,209.9,603.9z"/>
			</g>
		</g>
	</g>
</g>
<g>
	<path class="st4" d="M168.1,507.8v11.2h-27.3l-0.5-11.2H168.1z M139.7,485.4v6.3v3.4l0.1,1.4h28.4v-2c0-1.6,1.3-2.8,2.8-2.8
		s2.8,1.3,2.8,2.8v2h28.4l0.1-1.4v-3.4v-6.3H139.7z M168.1,541.3v-11.2h-26.8l0.5,11.2H168.1z M168.1,563.6v-11.2h-25.8l0.5,11.2
		H168.1z M173.8,507.8v11.2h27.3l0.5-11.2H173.8z M199.6,552.4h-25.8v11.2H199L199.6,552.4z M173.8,530.1v11.2h26.3l0.5-11.2H173.8z
		"/>
	<path class="st8" d="M141.3,530.1l-0.5-11.2h27.3v11.2H141.3z M139.8,496.6l0.5,11.2h27.8v-11.2H139.8z M168.1,552.4v-11.2h-26.3
		l0.5,11.2H168.1z M139.7,485.4h62.5v-11.1h-62.5V485.4z M173.8,496.6v11.2h27.8l0.5-11.2H173.8z M173.8,518.9v11.2h26.8l0.5-11.2
		H173.8z M173.8,541.3v11.2h25.8l0.5-11.2H173.8z M168.1,574.8v-11.2h-25.3l0.5,11.2H168.1z M199,563.6h-25.3v11.2h24.7L199,563.6z"
		/>
</g>
<g>
	<path class="st9" d="M186,381.6c-3,5.2-8.6,8.8-15,8.8c-6.4,0-12.1-3.5-15-8.8"/>
</g>
<path class="st10" d="M253.7,458.3c-0.1-2.8-0.2-5.5-0.4-8.4c-0.1-1.6-0.2-3.3-0.3-4.9c-0.2-2.8-0.3-5.6-0.6-8.5
	c28-16.7,47.8-39.8,47.8-68.8c0-1.2,0-2.4-0.1-3.6c0-0.6-0.1-1.1-0.1-1.7c0-0.7-0.1-1.3-0.1-2c-0.1-0.5-0.1-1-0.2-1.5
	c-0.1-0.7-0.2-1.4-0.3-2.1c-0.1-0.7-0.2-1.4-0.4-2.1c-0.1-0.5-0.2-1-0.3-1.5c-0.2-0.8-0.4-1.7-0.5-2.5c-0.1-0.3-0.1-0.7-0.2-1
	c-0.2-0.9-0.5-1.7-0.7-2.6c-0.1-0.3-0.2-0.6-0.3-0.9c-0.2-0.8-0.5-1.6-0.8-2.4c-0.1-0.3-0.2-0.7-0.3-1c-0.3-0.8-0.6-1.6-0.9-2.4
	c-0.1-0.3-0.2-0.6-0.4-1c0,0,0,0,0,0c0,0,0,0,0,0c0,0,0,0.1-0.1,0.1c-19.8,39.4-58.2,68-103.7,74.6c0,0-0.1,0-0.1,0
	c-1.6,0.2-3.2,0.4-4.8,0.6c-0.1,0-0.2,0-0.3,0c-3.2,0.3-6.4,0.6-9.7,0.7c-1.2,0-2.4,0.1-3.6,0.1c-0.5,0-1,0-1.4,0s-1,0-1.4,0
	c-1.2,0-2.4,0-3.6-0.1c-3.3-0.1-6.5-0.3-9.7-0.7c-0.1,0-0.2,0-0.3,0c-1.6-0.2-3.2-0.4-4.8-0.6c0,0-0.1,0-0.1,0
	c-45.6-6.5-83.9-35.1-103.7-74.6c0,0,0-0.1-0.1-0.1c0,0,0,0,0,0c0,0,0,0,0,0c-0.1,0.3-0.2,0.6-0.4,1c-0.3,0.8-0.6,1.6-0.9,2.4
	c-0.1,0.3-0.2,0.7-0.3,1c-0.3,0.8-0.5,1.6-0.8,2.4c-0.1,0.3-0.2,0.6-0.3,0.9c-0.2,0.8-0.5,1.7-0.7,2.6c-0.1,0.3-0.2,0.7-0.2,1
	c-0.2,0.8-0.4,1.7-0.5,2.5c-0.1,0.5-0.2,1-0.3,1.5c-0.1,0.7-0.3,1.4-0.4,2.1c-0.1,0.7-0.2,1.4-0.3,2.1c-0.1,0.5-0.1,1-0.2,1.5
	c-0.1,0.7-0.1,1.3-0.1,2c0,0.6-0.1,1.1-0.1,1.7c-0.1,1.2-0.1,2.4-0.1,3.6c0,29,19.8,52.2,47.8,68.8c-0.2,2.9-0.4,5.7-0.6,8.5
	c-0.1,1.6-0.2,3.3-0.3,4.9c-0.2,2.8-0.3,5.6-0.4,8.4c-0.1,1.5-0.2,3.1-0.2,4.7c-0.1,2.8-0.1,5.4-0.2,8.1c0,1.5-0.1,3-0.1,4.4
	c0,2.7,0,5.3,0,8c0,1.3,0,2.7,0,4c0,2.5,0.2,4.9,0.2,7.4c0.1,1.4,0.1,2.8,0.1,4.1c0.1,2.5,0.3,4.9,0.5,7.4c0.1,1.2,0.1,2.4,0.2,3.6
	c0.2,2.5,0.5,4.9,0.7,7.3c0.1,1,0.2,2.1,0.3,3.2c0.4,3.4,0.8,6.7,1.4,9.9c0.4,3.1,2,4.2,4.4,4c0.1,0,0.1,0,0.2,0
	c1.1,6.5,2.5,12.7,4.2,18.5h0l0,0l16.3-4.6c-1.4-5.1-2.7-10.6-3.8-16.5c3-0.7,3.4-2.6,2.9-5.7l0,0c0-0.3-0.1-0.6-0.1-0.9
	c-0.2-1.5-0.3-4.7-0.5-17h113.6c-0.6,6.2-1.2,12.2-2.1,17.9l0,0c-0.5,3-0.1,5,2.9,5.7c-1.1,5.9-2.3,11.4-3.8,16.5l16.3,4.6l0,0h0
	c1.7-5.9,3.1-12,4.2-18.5c0.1,0,0.1,0,0.2,0c2.4,0.2,4-0.9,4.4-4c0.5-3.2,1-6.5,1.4-9.9c0.1-1.2,0.2-2.4,0.3-3.5
	c0.2-2.3,0.5-4.6,0.7-6.9c0.1-1.4,0.2-2.8,0.3-4.2c0.2-2.3,0.3-4.5,0.4-6.8c0.1-1.4,0.1-2.9,0.1-4.3c0.1-2.4,0.2-4.7,0.2-7.2
	c0-1.4,0-2.9,0-4.4c0-2.5,0.1-5,0-7.6c0-1.5-0.1-3-0.1-4.4c0-2.7-0.1-5.3-0.2-8.1C253.8,461.4,253.7,459.8,253.7,458.3z"/>
<g>
	<path d="M122.9,448.8c2.8,0,5,0.8,6.9,2.4c2,1.8,3.1,4.3,3.1,7c0,2.6-1.1,5.2-3,7c-1.2,1.1-2.8,2-4.5,2.3c-0.8,0.1-1.9,0.2-3.2,0.2
		h-2.6c-1.5,0-2.1-0.1-2.6-0.5c-0.7-0.5-1.1-1-1.3-1.7c-0.1-0.4-0.1-0.7-0.1-2v-10.4c0-1.6,0-1.8,0.1-2.2c0.4-1.4,1.6-2.1,3.4-2.1
		H122.9z M121.7,461.9c2.1,0,2.7-0.1,3.4-0.6c0.9-0.7,1.5-1.9,1.5-3c0-1.4-0.8-2.7-2-3.3c-0.6-0.3-1.3-0.4-2.4-0.4
		c-0.1,0-0.3,0-0.5,0V461.9z"/>
	<path d="M135.3,467.9c-1.7,0-3.1-1.4-3.1-3.1c0-0.5,0.1-1.1,0.4-1.6l5.9-12.6c0.5-1.2,1.6-1.9,2.9-1.9c1.3,0,2.4,0.7,2.9,1.9
		l6,12.7c0.3,0.5,0.4,1,0.4,1.5c0,1.7-1.4,3.1-3.1,3.1c-1.4,0-2.3-0.7-3.2-2.6h-5.8C137.7,467.1,136.8,467.9,135.3,467.9z
		 M142.4,460.8l-1-2.3l-1,2.3H142.4z"/>
	<path d="M165.2,462.8c0.4,0.6,0.6,1.4,0.6,2c0,1.7-1.4,3.1-3.1,3.1c-1.1,0-2-0.5-2.6-1.4l-2.6-4.3v2.6c0,1.8-1.3,3.1-3.1,3.1
		c-0.9,0-1.9-0.4-2.4-1.1c-0.5-0.7-0.7-1.5-0.7-2.7v-11.7c0-1.4,0.3-2.1,1-2.8c0.7-0.6,1.3-0.8,2.8-0.8h2.6c1.5,0,2.2,0.1,3,0.3
		c2.9,0.8,5,3.5,5,6.5c0,1.8-0.6,3.2-2,4.8L165.2,462.8z M157.5,456.7h0.3c0.2,0,0.3,0,0.4,0c0.9,0,1.4-0.3,1.4-1c0-0.7-0.5-1-1.4-1
		c-0.1,0-0.4,0-0.6,0V456.7z"/>
	<path d="M182.9,465.7c-1.8,1.6-4.2,2.5-6.6,2.5c-5.5,0-10-4.4-10-9.9c0-5.5,4.5-10,10-10c2.3,0,4.5,0.8,6.3,2.3
		c1.5,1.2,2.3,2.5,2.3,3.7c0,1.7-1.4,3.1-3.1,3.1c-0.7,0-1.5-0.3-2-0.8l-0.9-1c-0.7-0.7-1.7-1.1-2.7-1.1c-2.1,0-3.7,1.6-3.7,3.7
		c0,2,1.6,3.7,3.7,3.7c1,0,2-0.4,2.8-1.2l0.7-0.7c0.5-0.5,1.4-0.9,2.1-0.9c1.7,0,3.1,1.4,3.1,3.1
		C184.9,463.4,184.2,464.6,182.9,465.7z"/>
	<path d="M195.1,461.9c1.4,0,2,0.2,2.6,0.7c0.7,0.6,1,1.4,1,2.2c0,0.9-0.4,1.7-1,2.3c-0.6,0.5-1.2,0.7-2.6,0.7h-4.8
		c-1.4,0-1.8-0.1-2.4-0.3c-1-0.4-1.6-1.2-1.8-2.3c-0.1-0.4-0.1-0.6-0.1-1.9v-10.3c0-1.6,0-1.8,0.3-2.4c0.3-0.7,0.9-1.3,1.5-1.6
		c0.7-0.3,0.9-0.3,2.7-0.3h3.7c1.8,0,2,0,2.4,0.1c1.3,0.3,2.2,1.4,2.2,2.7c0,0.9-0.4,1.8-1,2.3c-0.6,0.5-1.2,0.7-2.4,0.7h-3.1v1.3
		h2.5c1.5,0,2.5,0.9,2.5,2.3c0,0.7-0.3,1.4-0.8,1.8c-0.5,0.4-0.9,0.5-1.9,0.5h-2.2v1.4H195.1z"/>
	<path d="M208.7,461.9c1,0,1.6,0.2,2.2,0.6c0.7,0.5,1.2,1.4,1.2,2.3c0,0.8-0.4,1.7-1,2.2c-0.6,0.5-1.2,0.7-2.3,0.7h-6
		c-1.3,0-2.1-0.3-2.6-1c-0.8-0.9-0.9-1.3-0.9-3.9v-10.7c0-2.1,1.2-3.5,3.1-3.5c1,0,1.9,0.5,2.4,1.1c0.6,0.8,0.7,1.3,0.7,3.1v9H208.7
		z"/>
	<path d="M212.8,463.4c0-1.6,1.3-2.8,2.8-2.8c0.8,0,1.4,0.3,2.2,0.9c1.4,1,1.5,1.2,2,1.2c0.5,0,0.8-0.3,0.8-0.8
		c0-0.3-0.1-0.6-0.5-0.8c-0.2-0.1-0.3-0.2-1.3-0.5c-0.5-0.2-1-0.3-1.5-0.5c-2.8-1-4.1-2.8-4.1-5.4c0-3.7,2.8-6.2,7-6.2
		c3.4,0,6.1,1.8,6.1,4.1c0,1.5-1,2.6-2.4,2.6c-0.9,0-1.5-0.3-2.6-1.1c-0.7-0.5-1-0.7-1.3-0.7c-0.4,0-0.7,0.3-0.7,0.7
		c0,0.6,0.4,0.8,1.9,1.3c1.6,0.5,3.1,1.2,4,2c1.2,1,1.9,2.7,1.9,4.5c0,1.7-0.6,3.3-1.8,4.5c-1.3,1.3-3,1.9-5.3,1.9
		C215.9,468.2,212.8,466.1,212.8,463.4z"/>
</g>
<g>
	<g>
		<path class="st11" d="M164,467c0-10.5,0-26.3,0-34.1"/>
		<path class="st12" d="M164,474.9c0-10.5,0-5.3,0-13.1"/>
	</g>
	<g>
		<path class="st11" d="M178.2,467c0-10.5,0-26.3,0-34.1"/>
		<path class="st12" d="M178.2,474.9c0-10.5,0-5.3,0-13.1"/>
	</g>
</g>
<g>
	<g>
		<path class="st13" d="M171.1,157.2c6.2,0,12-3.8,19-9.2c64.4-49.5,177.4,64.6,18.9,186.1c-7.6,4.7-17.8,13-37.9,13h-0.4
			c-20.2,0-30.4-8.3-37.9-13C-25.7,212.6,87.3,98.5,151.7,148c7.1,5.4,12.8,9.2,19,9.2"/>
		<path class="st14" d="M171.1,157.2c6.2,0,12-3.8,19-9.2c64.4-49.5,177.4,64.6,18.9,186.1c-7.6,4.7-19.4,15.2-37.9,15.2h-0.4
			c-18.5,0-30.4-10.5-37.9-15.2C-25.7,212.6,87.3,98.5,151.7,148c7.1,5.4,12.8,9.2,19,9.2"/>
	</g>
	<g>
		<line class="st14" x1="31.7" y1="223" x2="52" y2="223"/>
		<line class="st14" x1="310.2" y1="223" x2="289.9" y2="223"/>
	</g>
</g>
<path class="st15" d="M72.1,352.9c0-3.6-2.8-6.5-6.3-6.8c1.5-3.2,0.3-7.1-2.8-8.9c-3.1-1.8-7-0.9-9,2c-2-2.9-5.9-3.8-9-2
	c-3.1,1.8-4.3,5.7-2.8,8.9c-3.5,0.3-6.3,3.2-6.3,6.8c0,3.6,2.8,6.5,6.3,6.8c-1.5,3.2-0.3,7.1,2.8,8.9c3.1,1.8,7,0.9,9-2
	c2,2.9,5.9,3.8,9,2c3.1-1.8,4.3-5.7,2.8-8.9C69.3,359.4,72.1,356.5,72.1,352.9z"/>
<path class="st15" d="M276.1,359.7c-1.5,3.2-0.3,7.1,2.8,8.9c3.1,1.8,7,0.9,9-2c2,2.9,5.9,3.8,9,2c3.1-1.8,4.3-5.7,2.8-8.9
	c3.5-0.3,6.3-3.2,6.3-6.8c0-3.6-2.8-6.5-6.3-6.8c1.5-3.2,0.3-7.1-2.8-8.9c-3.1-1.8-7-0.9-9,2c-2-2.9-5.9-3.8-9-2
	c-3.1,1.8-4.3,5.7-2.8,8.9c-3.5,0.3-6.3,3.2-6.3,6.8C269.8,356.5,272.6,359.4,276.1,359.7z"/>
<g>
	<g>
		<path d="M103.6,551.9c1,3.5,1.6,6.6,1.7,9.4c-0.2,7.5-2.8,12.4-7.5,13.8c-4.1,1.2-9-0.6-11.3-4.1c-2.8-4.2-0.4-8.8,2.2-11.9
			c1.6-2,1.3-4.9-0.7-6.5c-2-1.6-4.9-1.3-6.5,0.7c-6.2,7.6-7.2,16.1-2.7,22.8c2.8,4.3,7.5,7.2,12.5,8.2c-7,2.4-14.4,0.7-17.8-4.4
			c-1.4-2.1-4.3-2.7-6.4-1.2c-2.1,1.4-2.7,4.3-1.2,6.4c4.2,6.1,11.4,9.5,19.3,9.5c4.2,0,8.5-0.9,12.6-2.9
			c11.6-5.6,21.4-19.6,14.7-42.2L103.6,551.9z"/>
		<path d="M274.7,578.6c-2.1-1.4-5-0.9-6.4,1.2c-3.4,5.1-10.8,6.7-17.8,4.4c5-1,9.6-3.9,12.5-8.2c4.5-6.7,3.4-15.3-2.7-22.8
			c-1.6-2-4.5-2.3-6.5-0.7c-2,1.6-2.3,4.5-0.7,6.5c2.5,3.1,5,7.7,2.2,11.9c-2.3,3.5-7.3,5.3-11.3,4.1c-4.6-1.3-7.3-6.2-7.5-13.8
			c0.2-2.8,0.7-5.9,1.7-9.4l-8.8-2.5c-6.7,22.6,3.1,36.6,14.7,42.2c4.1,2,8.4,2.9,12.6,2.9c7.8,0,15.1-3.3,19.3-9.5
			C277.4,582.9,276.8,580.1,274.7,578.6z"/>
	</g>
</g>
</svg>
