<?xml version="1.0" encoding="utf-8"?>
<!-- Generator: Adobe Illustrator 26.5.0, SVG Export Plug-In . SVG Version: 6.00 Build 0)  -->
<svg version="1.1" id="Layer_2_00000016058784028012465780000003483073258253190538_"
	 xmlns="http://www.w3.org/2000/svg" xmlns:xlink="http://www.w3.org/1999/xlink" x="0px" y="0px" viewBox="0 0 341.9 614.6"
	 style="enable-background:new 0 0 341.9 614.6;" xml:space="preserve">
<style type="text/css">
	.st0{fill-rule:evenodd;clip-rule:evenodd;}
	.st1{fill:#003366;}
	.st2{fill:#FFFFFF;}
	.st3{fill-rule:evenodd;clip-rule:evenodd;fill:#FFFFFF;}
	.st4{clip-path:url(#SVGID_00000165215732418829120990000000694232167207380393_);}
	.st5{fill:#C0C0C0;}
	.st6{clip-path:url(#SVGID_00000022533025750494662170000014320168104255184292_);}
	.st7{fill:#FF9A9A;}
	.st8{fill:#FFCE08;}
	.st9{fill:#09090B;}
	.st10{fill:#6799CC;}
	.st11{fill:#146734;}
	.st12{fill:#CC2027;}
	.st13{fill:#CD9ACD;}
	.st14{fill:#9A669A;}
	.st15{fill:#BB4F9F;}
	.st16{fill:#FF6600;}
	.st17{fill:#669A33;}
	.st18{clip-path:url(#SVGID_00000077286140277709671780000012229362766556462466_);}
	.st19{clip-path:url(#SVGID_00000070093529406824973240000003026466701372136617_);}
</style>
<g>
	<g>
		<g>
			<g>
				<path class="st0" d="M165.8,614.6l-1.4-202.8c-0.2-6.2-9.5-6-9.4,0.2l1,159.3c-11.1,30.2-40.2,34.4-45.5,34.6
					c-5.9,0.2-4.9,8.7,0,8.7h32.5l13.1-11l0.1,11L165.8,614.6L165.8,614.6L165.8,614.6z"/>
				<path class="st0" d="M176.4,614.6l1.4-202.8c0.2-6.2,9.5-6,9.4,0.2l-1,159.3c11.1,30.2,40.2,34.4,45.5,34.6
					c5.9,0.2,4.9,8.7,0,8.7h-32.5l-13.1-11l-0.1,11L176.4,614.6L176.4,614.6L176.4,614.6z"/>
			</g>
			<rect x="174" y="483.4" class="st1" width="17.1" height="91.2"/>
			<rect x="151.2" y="483.4" class="st1" width="17.1" height="91.2"/>
		</g>
		<rect x="148.7" y="406.7" class="st2" width="44.9" height="88.4"/>
		<path d="M115.2,90c2.1-1.7,4.2-3.3,6.4-4.8c14.1-9.5,31.2-15.1,49.5-15.1s35.4,5.6,49.5,15.1c2.9,1.9,5.6,4,8.2,6.2
			c43.6,36.6,82.6,120.4,80.5,187c0,75.8-61.8,137.1-138.1,137.1S33.2,354.5,33,279.1C30.8,210.9,70.9,125.7,115.2,90z"/>
		<path class="st2" d="M170.9,392.7c-7,0-13.6-3.8-17-9.9c-0.6-1.1-0.2-2.5,0.9-3.1s2.5-0.2,3.1,0.9c2.7,4.7,7.6,7.6,13,7.6
			s10.4-2.9,13-7.6c0.6-1.1,2-1.5,3.1-0.9s1.5,2,0.9,3.1C184.5,388.9,178,392.7,170.9,392.7L170.9,392.7L170.9,392.7z"/>
		<g>
			<path class="st3" d="M78.3,245.1c0-51.2,41.5-92.6,92.6-92.6s92.6,41.5,92.6,92.6s-41.5,92.6-92.6,92.6S78.3,296.3,78.3,245.1
				L78.3,245.1L78.3,245.1z"/>
			<g>
				<defs>
					<path id="SVGID_1_" d="M78.3,245.1c0-51.2,41.5-92.6,92.6-92.6s92.6,41.5,92.6,92.6s-41.5,92.6-92.6,92.6
						S78.3,296.3,78.3,245.1L78.3,245.1L78.3,245.1z"/>
				</defs>
				<clipPath id="SVGID_00000181073576566664438440000014613911239531078310_">
					<use xlink:href="#SVGID_1_"  style="overflow:visible;"/>
				</clipPath>
				<g style="clip-path:url(#SVGID_00000181073576566664438440000014613911239531078310_);">
					<path class="st0" d="M124.6,245.1c0-25.6,20.7-46.3,46.3-46.3s46.3,20.7,46.3,46.3s-20.7,46.3-46.3,46.3
						S124.6,270.7,124.6,245.1z"/>
				</g>
			</g>
		</g>
		<g>
			<path class="st5" d="M35,238.5c-16.3-3.6-25.7-7.9-25.7-12.5c0-5.2,11.8-9.9,31.7-13.8C38.6,221,36.6,229.8,35,238.5L35,238.5
				L35,238.5z M300.8,212.2c2.5,8.8,4.5,17.6,6,26.4c16.3-3.6,25.8-7.9,25.8-12.6C332.6,220.8,320.8,216.1,300.8,212.2z"/>
			<g>
				<path class="st2" d="M292.7,165.2L292.7,165.2c-3.4-13-16.1-62-22-80c-5.6-17-12.6-30-37.4-31.6c-24.5-1.6-36.4-2.2-62.2-2.2
					s-36.1,0.5-62.2,2.2C84,55.2,77,68.3,71.3,85.3c-5.9,17.9-18.6,66.9-22,80c-15.1,13.8-34.9,52.2-39.1,58.4
					c8.3-11.7,77.1-20.8,160.8-20.8s152.5,9.1,160.8,20.8C327.8,217.9,308,179.2,292.7,165.2L292.7,165.2L292.7,165.2z"/>
				<g>
					<defs>
						<path id="SVGID_00000016775192902308406960000014241591534361984401_" d="M292.7,165.2L292.7,165.2c-3.4-13-16.1-62-22-80
							c-5.6-17-12.6-30-37.4-31.6c-24.5-1.6-36.4-2.2-62.2-2.2s-36.1,0.5-62.2,2.2C84,55.2,77,68.3,71.3,85.3
							c-5.9,17.9-18.6,66.9-22,80c-15.1,13.8-34.9,52.2-39.1,58.4c8.3-11.7,77.1-20.8,160.8-20.8s152.5,9.1,160.8,20.8
							C327.8,217.9,308,179.2,292.7,165.2L292.7,165.2L292.7,165.2z"/>
					</defs>
					<clipPath id="SVGID_00000057139243809335910990000013689242943730384813_">
						<use xlink:href="#SVGID_00000016775192902308406960000014241591534361984401_"  style="overflow:visible;"/>
					</clipPath>
					<g style="clip-path:url(#SVGID_00000057139243809335910990000013689242943730384813_);">
						<g>
							<circle class="st7" cx="168.5" cy="53" r="11.6"/>
							<circle class="st8" cx="94.2" cy="111.7" r="11.7"/>
							<circle class="st9" cx="148.2" cy="176.6" r="11.6"/>
							<polygon class="st10" points="144.2,59.8 150.1,77 115.2,100 100.5,60.9 115.4,50.4 							"/>
							<circle class="st11" cx="123.5" cy="197.4" r="11.6"/>
							<path class="st12" d="M132.2,156.3c-1.4,0.6-3,0.7-4.5,0.3c-4.2-0.9-6.7-5.1-5.8-9.2c3.9-17.1,11.6-33.6,22.3-47.5
								c2.9-3.8,6.2-5.6,10-5.4c2.6,0.1,4.9,1.5,6.3,3.6c1.4,2.2,1.5,4.9,0.5,7.2c-1.5,3.4-2.8,6.8-3.9,10.4c2.4-2.9,5.1-5.6,8.3-8
								c6.1-4.7,11.7-3.6,15-1c3.2,2.5,3.9,6.1,4.2,7.6l2.7,13.4c0.8,4.2-1.9,8.2-6.1,9.1c-4.2,0.8-8.2-1.9-9.1-6.1l-1.4-7.1
								c-4.8,5-8.2,11.3-10.8,16.5c-1.1,2.2-4.5,9.1-11.9,9.4c-3.1,0.1-5.9-1.6-7.3-4.3c-0.5-1-0.9-2.1-1.2-3.2
								c-0.9,2.9-1.8,5.9-2.4,8.9C136.3,153.4,134.5,155.4,132.2,156.3L132.2,156.3L132.2,156.3z"/>
							<path class="st13" d="M34.3,191.5c0.6-1.4,1.5-2.6,2.9-3.5c3.5-2.4,8.3-1.4,10.7,2.2c9.7,14.7,16.3,31.6,19,48.9
								c0.7,4.6-0.3,8.3-2.9,10.9c-1.8,1.8-4.5,2.5-7,2s-4.6-2.3-5.5-4.6c-1.4-3.4-3-6.8-4.8-10c0.4,3.7,0.5,7.6,0.1,11.5
								c-0.8,7.6-5.5,10.9-9.6,11.5c-4,0.6-7.1-1.4-8.4-2.2l-11.6-7.3c-3.6-2.3-4.6-7-2.4-10.6c2.3-3.6,7-4.7,10.6-2.4l6.1,3.9
								c-0.3-6.9-2.5-13.7-4.5-19.2c-0.9-2.4-3.4-9.5,1.4-15.1c2-2.3,5.2-3.2,8.1-2.3c1.1,0.4,2.2,0.8,3.1,1.3
								c-1.5-2.7-3.1-5.4-4.8-7.9C33.5,196.4,33.4,193.7,34.3,191.5L34.3,191.5L34.3,191.5z"/>
							<path class="st1" d="M77.6,191.9c-4.3-0.3-6.1-8.5-5.9-16.7c-5.4,4.9-10.9,8-14.2,7.8c-1.3-0.1-2.1-0.6-2.5-1.1
								c-0.5-0.5-1-1.3-1-2.8c0.1-3.2,3.5-8.5,8.6-13.4c-0.5,0-1,0-1.5-0.1c-7-0.5-15.1-2.5-15-6.9c0.2-4.4,8.8-6.2,16.9-6.1
								c-4.8-5.2-7.8-10.5-7.7-13.8c0-1.4,0.6-2.3,1.1-2.7c0.5-0.5,1.5-1,3-0.9c3.3,0.2,8.4,3.5,13.2,8.5c0.4-8.1,2.7-16.5,7.1-16.4
								l0,0c4.5,0.3,6.2,8.5,6.1,16.7c5.4-4.9,10.9-8,14.2-7.8c1.3,0.1,2.1,0.6,2.5,1.1c0.4,0.5,1,1.3,0.9,2.7
								c-0.1,3.2-3.4,8.5-8.6,13.4c0.5,0,1,0,1.5,0.1c7,0.5,15.1,2.5,14.9,6.9c-0.2,4.4-8.8,6.2-16.9,6.1c4.8,5.2,7.8,10.5,7.7,13.8
								c0,1.4-0.6,2.3-1.1,2.7c-0.5,0.5-1.5,1-3,0.9c-3.3-0.2-8.4-3.5-13.2-8.5c-0.4,8.1-2.7,16.5-7.1,16.4L77.6,191.9L77.6,191.9
								L77.6,191.9z"/>
							<circle class="st14" cx="74.3" cy="88" r="11.7"/>
							<circle class="st15" cx="286.6" cy="158.4" r="11.6"/>
							<path class="st16" d="M192.4,144.3h0.1c3.8-0.2,7.2,2.3,8.2,6c1.9,7.2,3.8,14.6,6,21.8c0.4-4.6,1.3-9.2,3-13.7
								c0.9-2.5,3-4.4,5.6-5c2.6-0.6,5.3,0,7.3,1.8c3.5,3.2,6.4,7.2,8.2,11.6c1.7,4.1-0.2,8.8-4.3,10.5c-1.3,0.5-2.7,0.7-4,0.6
								c-0.1,2.9-0.1,5.9-0.1,9c0,4.2,0.1,8.5-0.2,12.8c-0.1,1.9-0.5,7.1-4.7,10.6c-2.6,2.2-6.3,2.5-9.3,0.7c-1.5-0.9-2.8-2-3.8-3.2
								c-0.2,2.8-1.8,5.3-4.5,6.6c-4,1.9-8.8,0.3-10.7-3.7c-6.8-14.1-8.2-33.6-4.1-59.6C185.6,147.4,188.7,144.6,192.4,144.3
								L192.4,144.3L192.4,144.3z"/>
							<path class="st8" d="M211,108.8c39.9-41.5-3.6-62.4-10.1-38.4C183.6,52.7,155.9,92.1,211,108.8z"/>
							<circle class="st17" cx="257.2" cy="70.1" r="11.6"/>
							<circle class="st10" cx="256.1" cy="179.8" r="11.6"/>
							<polygon class="st9" points="263.8,95.9 263.6,115.5 279.7,126.8 261,132.7 255.3,151.5 243.9,135.5 224.2,135.9 
								235.9,120.1 229.5,101.5 248.1,107.7 							"/>
							<path class="st7" d="M305.5,193.4c0.5,3.2-0.8,6.6-3.7,8.5c-2.9,1.9-5.9,3.8-8.9,6c2,0.8,3.7,2.3,4.6,4.3
								c1.9,4.2,0.1,9.2-4.1,11.2c-11,5.1-17.2,9.6-23.8,14.3c-2.2,1.6-4.4,3.2-6.9,4.9c-3.2,2.2-7.5,1.9-10.4-0.7
								c-2.6-2.3-3.4-5.9-2.3-9.1c-2.9,1.8-6.7,1.7-9.6-0.5c-3.7-2.8-4.4-8.1-1.5-11.8c10.7-13.9,42.5-29.5,55.8-33.6
								c4-1.2,8.3,0.7,10.1,4.5C305.2,191.9,305.4,192.6,305.5,193.4L305.5,193.4L305.5,193.4z"/>
						</g>
					</g>
				</g>
			</g>
		</g>
		<g>
			<path class="st9" d="M111.6,402.2c0,0-16.7,22.7-23.5,36.9s-4.6,32.2,15.2,35.1c19.8,2.9,24.7,2.4,24.7,2.4l1.3,10.7H154
				l1.5-72.6C155.5,414.8,129.2,411.8,111.6,402.2L111.6,402.2L111.6,402.2z M107.9,460.5c-4.1,0.1-14.1-4.5-5.9-16.9
				s18.1-28,18.1-28c-0.1,0.3,6.3,46.1,6.3,46.1S112,460.4,107.9,460.5L107.9,460.5z"/>
			<g>
				<defs>
					<path id="SVGID_00000018215853088631457600000009528969290150826174_" d="M111.6,402.2c0,0-16.7,22.7-23.5,36.9
						s-4.6,32.2,15.2,35.1c19.8,2.9,24.7,2.4,24.7,2.4l1.3,10.7H154l1.5-72.6C155.5,414.8,129.2,411.8,111.6,402.2L111.6,402.2
						L111.6,402.2z M107.9,460.5c-4.1,0.1-14.1-4.5-5.9-16.9s18.1-28,18.1-28c-0.1,0.3,6.3,46.1,6.3,46.1S112,460.4,107.9,460.5
						L107.9,460.5z"/>
				</defs>
				<clipPath id="SVGID_00000019676084707454544060000006523582944094559925_">
					<use xlink:href="#SVGID_00000018215853088631457600000009528969290150826174_"  style="overflow:visible;"/>
				</clipPath>
				<g style="clip-path:url(#SVGID_00000019676084707454544060000006523582944094559925_);">
					<g>
						<circle class="st7" cx="145.6" cy="420.5" r="4.6"/>
						<circle class="st8" cx="105.6" cy="423.5" r="4.6"/>
						<circle class="st2" cx="142.6" cy="477.7" r="4.6"/>
						<polygon class="st10" points="142.4,429.2 144.7,436 131,445.1 125.2,429.7 131.1,425.6 						"/>
						
							<ellipse transform="matrix(0.9806 -0.196 0.196 0.9806 -92.911 36.0749)" class="st11" cx="135.8" cy="487.4" rx="4.6" ry="4.6"/>
						<path class="st12" d="M136.8,467.1c-0.6,0.2-1.2,0.3-1.8,0.1c-1.6-0.4-2.6-2-2.3-3.6c1.5-6.7,4.6-13.2,8.8-18.7
							c1.1-1.5,2.4-2.2,3.9-2.1c1,0,1.9,0.6,2.5,1.4s0.6,1.9,0.2,2.8c-0.6,1.3-1.1,2.7-1.5,4.1c0.9-1.1,2-2.2,3.3-3.1
							c2.4-1.8,4.6-1.4,5.9-0.4c1.2,1,1.5,2.4,1.6,3l1.1,5.3c0.3,1.6-0.7,3.2-2.4,3.6s-3.2-0.7-3.6-2.4l-0.6-2.8
							c-1.9,2-3.2,4.4-4.2,6.5c-0.4,0.9-1.8,3.5-4.7,3.7c-1.2,0-2.3-0.6-2.9-1.7c-0.2-0.4-0.4-0.8-0.5-1.2c-0.4,1.1-0.7,2.3-1,3.5
							C138.4,465.9,137.7,466.7,136.8,467.1L136.8,467.1L136.8,467.1z"/>
						<path class="st1" d="M103.5,485.5c-1.6-0.1-2.2-3-2.1-6c-1.9,1.8-3.9,2.9-5.1,2.8c-0.5,0-0.7-0.2-0.9-0.4
							c-0.2-0.2-0.3-0.5-0.3-1c0-1.2,1.2-3,3.1-4.8c-0.2,0-0.4,0-0.5,0c-2.5-0.2-5.4-0.9-5.3-2.5c0.1-1.6,3.1-2.2,6-2.2
							c-1.7-1.9-2.8-3.8-2.8-4.9c0-0.5,0.2-0.8,0.4-1c0.2-0.2,0.5-0.4,1.1-0.3c1.2,0.1,3,1.3,4.7,3c0.1-2.9,1-5.9,2.5-5.9l0,0
							c1.6,0.1,2.2,3,2.2,6c1.9-1.8,3.9-2.9,5.1-2.8c0.5,0,0.7,0.2,0.9,0.4c0.2,0.2,0.3,0.5,0.3,1c0,1.2-1.2,3-3.1,4.8
							c0.2,0,0.4,0,0.5,0c2.5,0.2,5.4,0.9,5.3,2.5c-0.1,1.6-3.1,2.2-6,2.2c1.7,1.9,2.8,3.8,2.8,4.9c0,0.5-0.2,0.8-0.4,1
							c-0.2,0.2-0.5,0.4-1.1,0.3c-1.2-0.1-3-1.3-4.7-3C106,482.6,105.1,485.6,103.5,485.5L103.5,485.5L103.5,485.5z"/>
						<circle class="st14" cx="95" cy="431.4" r="4.6"/>
					</g>
				</g>
			</g>
		</g>
		<g>
			<path class="st9" d="M186.8,414.8l1.5,72.6H213l1.3-10.7c0,0,4.9,0.6,24.7-2.4s21.9-20.9,15.2-35.1
				c-6.8-14.2-23.5-36.9-23.5-36.9C213,411.8,186.7,414.8,186.8,414.8L186.8,414.8L186.8,414.8z M215.9,461.7c0,0,6.4-45.8,6.3-46.1
				c0,0,9.9,15.6,18.1,28s-1.9,17-5.9,16.9C230.3,460.4,215.9,461.7,215.9,461.7L215.9,461.7L215.9,461.7z"/>
			<g>
				<defs>
					<path id="SVGID_00000048482764953915024120000001874305767064903811_" d="M186.8,414.8l1.5,72.6H213l1.3-10.7
						c0,0,4.9,0.6,24.7-2.4s21.9-20.9,15.2-35.1c-6.8-14.2-23.5-36.9-23.5-36.9C213,411.8,186.7,414.8,186.8,414.8L186.8,414.8
						L186.8,414.8z M215.9,461.7c0,0,6.4-45.8,6.3-46.1c0,0,9.9,15.6,18.1,28s-1.9,17-5.9,16.9C230.3,460.4,215.9,461.7,215.9,461.7
						L215.9,461.7L215.9,461.7z"/>
				</defs>
				<clipPath id="SVGID_00000164472360047663069940000017396205678088316857_">
					<use xlink:href="#SVGID_00000048482764953915024120000001874305767064903811_"  style="overflow:visible;"/>
				</clipPath>
				<g style="clip-path:url(#SVGID_00000164472360047663069940000017396205678088316857_);">
					<g>
						<circle class="st15" cx="236.4" cy="467.3" r="4.6"/>
						<path class="st16" d="M188.7,456L188.7,456c1.5-0.1,2.9,0.9,3.3,2.4c0.7,2.8,1.5,5.7,2.4,8.6c0.2-1.8,0.5-3.6,1.2-5.4
							c0.4-1,1.2-1.7,2.2-2c1-0.2,2.1,0,2.9,0.7c1.4,1.2,2.5,2.8,3.2,4.5c0.7,1.6-0.1,3.5-1.7,4.1c-0.5,0.2-1.1,0.3-1.6,0.2
							c0,1.1,0,2.3,0,3.5c0,1.6,0,3.3-0.1,5c-0.1,0.8-0.2,2.8-1.8,4.1c-1,0.9-2.5,1-3.6,0.3c-0.6-0.4-1.1-0.8-1.5-1.2
							c-0.1,1.1-0.7,2.1-1.8,2.6c-1.6,0.8-3.5,0.1-4.2-1.5c-2.7-5.5-3.2-13.2-1.6-23.4C186.1,457.2,187.3,456.1,188.7,456L188.7,456
							L188.7,456z"/>
						<path class="st8" d="M195.9,438.6c15.6-16.3-1.4-24.5-3.9-15.1C185.2,416.6,174.3,432.1,195.9,438.6z"/>
						<circle class="st17" cx="213.5" cy="424.4" r="4.6"/>
						<circle class="st10" cx="227" cy="475.5" r="4.6"/>
						<polygon class="st2" points="215.5,435.5 215.4,443.2 221.8,447.7 214.4,450 212.2,457.4 207.7,451.1 200,451.2 204.5,445 
							202,437.7 209.4,440.2 						"/>
						<path class="st7" d="M265.2,416.6c0.2,1.3-0.3,2.6-1.5,3.3c-1.1,0.7-2.3,1.5-3.5,2.4c0.8,0.3,1.4,0.9,1.8,1.7
							c0.8,1.7,0,3.6-1.6,4.4c-4.3,2-6.8,3.8-9.4,5.6c-0.9,0.6-1.7,1.2-2.7,1.9c-1.3,0.9-2.9,0.7-4.1-0.3c-1-0.9-1.3-2.3-0.9-3.6
							c-1.1,0.7-2.6,0.7-3.8-0.2c-1.4-1.1-1.7-3.2-0.6-4.6c4.2-5.5,16.7-11.6,21.9-13.2c1.6-0.5,3.3,0.3,4,1.8
							C265,416,265.1,416.3,265.2,416.6L265.2,416.6L265.2,416.6z"/>
					</g>
				</g>
			</g>
		</g>
		<polygon points="154,501.2 129.9,501.2 129.3,487.4 154,487.4 		"/>
		<polygon points="188.2,501.2 212.4,501.2 213,487.4 188.2,487.4 		"/>
	</g>
	<path class="st17" d="M171.4,118.5L171.4,118.5c-44.6,0-88,10.9-147.6,41v45.7c0,0,20.9,6,20.9,44.5c0,0,0-0.2,0.1-0.4
		c2.2,68,58,122.5,126.6,122.5c68.6,0,124.4-54.5,126.6-122.6c0.1,0.3,0.1,0.5,0.1,0.5c0-38.5,20.9-44.5,20.9-44.5v-45.7
		C259.4,129.4,216,118.5,171.4,118.5L171.4,118.5L171.4,118.5z M171.4,347.2c-56.4,0-102.1-45.7-102.1-102.1s45.7-102.1,102-102
		c56.4,0,102.1,45.7,102.1,102.1C273.4,301.5,227.8,347.2,171.4,347.2z"/>
	
		<rect x="41.8" y="173.5" transform="matrix(0.7071 -0.7071 0.7071 0.7071 -114.3145 89.7645)" class="st2" width="18.8" height="18.8"/>
	
		<rect x="282.2" y="173.4" transform="matrix(0.7071 -0.7071 0.7071 0.7071 -43.9004 259.7364)" class="st2" width="18.8" height="18.8"/>
</g>
</svg>
