<?xml version="1.0" encoding="UTF-8"?>
<svg id="Layer_1" data-name="Layer 1" xmlns="http://www.w3.org/2000/svg" viewBox="0 0 251.86 62.46">
  <defs>
    <style>
      .cls-1 {
        fill: #fff;
        fill-rule: evenodd;
      }
    </style>
  </defs>
  <path class="cls-1" d="M70.71,61.19c.23,.41,.09,.93-.32,1.16-.41,.23-.93,.09-1.16-.32-.96-1.68-2.75-2.73-4.69-2.73s-3.73,1.05-4.69,2.73c-.16,.28-.44,.43-.74,.43-.14,0-.29-.04-.42-.11-.41-.23-.55-.75-.32-1.16,1.26-2.21,3.62-3.59,6.17-3.59s4.91,1.38,6.16,3.59Zm13.48-29.14c.02,11.08-8.1,20.09-19.18,20.11-11.08,.02-20.09-8.95-20.11-20.03-.02-11.08,8.95-20.09,20.03-20.11,11.08-.02,19.24,8.95,19.26,20.03Zm-10.08,.02c-.01-5.28-4.3-9.56-9.58-9.55-5.28,.01-9.56,4.3-9.55,9.58s4.3,9.56,9.58,9.55c5.28-.01,9.56-4.3,9.55-9.58ZM17.65,51l-17.55,.04L0,.91l16.6-.03c5.62-.01,15.65-.03,22.17,9.3,3.47,4.73,4.63,10.08,4.64,15.57,.03,13.68-6.72,25.21-25.76,25.25Zm-4.76-11.24h5.49c9.55-.03,12.25-6.67,12.23-13.79,0-2.85-.62-6.43-2.46-9.28-1.49-2.23-4.07-4.6-9.76-4.59h-5.56s.06,27.65,.06,27.65Zm87.92,12.29c2.85,0,7.45-.42,9.75-5.24h.14s0,4,0,4l10.63-.02-.08-37.6-11.24,.02,.04,20.66c.01,5.96-3.17,7.66-6.42,7.67-6.03,.01-6.04-4.93-6.04-7.51l-.04-20.8-11.25,.02,.05,22.49c.01,5.15,.42,7.86,3.41,11.58,3.33,4.19,8.75,4.72,11.05,4.72Zm34.82-21.95c-.01-5.69,3.65-6.78,8.86-6.93l-.02-11.31c-6.5,.01-8.46,3.47-9.41,5.3h-.13s0-4,0-4l-10.57,.02,.08,37.6,11.24-.02-.04-20.66Zm19.64,20.68l12.27-.02-.04-19.11,14.57-.03-.02-11.25-14.57,.03-.02-8.54,15.11-.03-.02-11.25-27.38,.06,.1,50.15ZM196.68,14.76l-11.25,.02,.07,35.94,11.25-.02-.07-35.94ZM215.29,.51l-11.25,.02,.03,12.54h-5.07s.02,8.55,.02,8.55h5.07s.06,29.06,.06,29.06l11.25-.02-.06-29.07h4.94s-.02-8.55-.02-8.55h-4.94s-.03-12.53-.03-12.53Zm35.39,23.04c-.97-9.89-9.51-11.84-14.46-11.83-7.79,.02-14.56,4.98-14.55,12.43,.01,5.08,4.08,8.26,8.97,9.81,7.19,2.77,9.97,3.1,9.97,6.01,0,1.83-2.03,2.92-3.93,2.92-.47,0-3.79,0-4.28-3.45l-11.18,.02c1.04,9.89,9.65,12.45,15.34,12.44,8.34-.02,15.31-4.91,15.29-12.84-.02-8.13-6.8-10.02-13.17-11.77-2.98-.87-5.76-2.02-5.77-4.05,0-1.02,.81-2.51,3.18-2.51,3.32,0,3.46,2.03,3.53,2.84l11.05-.02ZM197.22,6.17c0,3.42-2.76,6.19-6.17,6.2-3.42,0-6.19-2.76-6.2-6.17C184.84,2.78,187.6,0,191.02,0s6.19,2.76,6.2,6.17Zm-7.79,.6c-.56,0-1.02,.46-1.02,1.02,0,.56,.46,1.02,1.02,1.02,.56,0,1.02-.46,1.02-1.02,0-.56-.46-1.02-1.02-1.02Zm0-3.21c-.56,0-1.02,.46-1.02,1.02,0,.56,.46,1.02,1.02,1.02,.56,0,1.02-.46,1.02-1.02,0-.56-.46-1.02-1.02-1.02Zm3.22,3.21c-.56,0-1.02,.46-1.02,1.02,0,.56,.46,1.02,1.02,1.02,.56,0,1.02-.46,1.02-1.02,0-.56-.46-1.02-1.02-1.02Zm0-3.21c-.56,0-1.02,.46-1.02,1.02,0,.56,.46,1.02,1.02,1.02,.56,0,1.02-.46,1.02-1.02,0-.56-.46-1.02-1.02-1.02Z"/>
</svg>